<svg width="156" height="28" viewBox="0 0 156 28" fill="none" xmlns="http://www.w3.org/2000/svg">
<path fill-rule="evenodd" clip-rule="evenodd" d="M84.8246 2.9876C85.2856 3.28544 85.6626 3.60673 85.9603 3.90507C87.1326 5.12395 87.6536 6.56007 87.7411 7.47397L87.7843 7.95285H73.804L73.8473 7.47397C73.9582 6.08272 74.8501 4.17537 76.7164 2.98097L76.0616 1.5989C75.9751 1.38165 76.0616 1.12054 76.2788 1.03333C76.4956 0.946629 76.7561 1.03333 76.8431 1.25109L77.4669 2.56686C78.3934 2.13031 79.5112 1.86002 80.8377 1.86002C82.1489 1.86002 83.2204 2.15683 84.0772 2.5689L84.7015 1.25109C84.788 1.03333 85.0485 0.946629 85.2658 1.03333C85.483 1.12003 85.57 1.38114 85.483 1.5989L84.8246 2.9876ZM71.5794 8.60974C70.6947 8.60974 70 9.30715 70 10.1952V17.1707C70 18.0583 70.6947 18.7561 71.5794 18.7561C72.4636 18.7561 73.1587 18.0587 73.1587 17.1707V10.1952C73.1584 9.30715 72.4636 8.60974 71.5794 8.60974ZM88.3837 10.1952C88.3837 9.30715 89.0785 8.60974 89.9631 8.60974C90.8474 8.60974 91.5421 9.30715 91.5425 10.1952V17.1707C91.5425 18.0587 90.8474 18.7561 89.9631 18.7561C89.0785 18.7561 88.3837 18.0583 88.3837 17.1707V10.1952ZM75.5824 21.3426H73.8459V8.72192H87.7387V21.3426H86.0021V25.2593C86.0021 26.2166 85.2206 26.9999 84.2656 26.9999C83.3106 26.9999 82.5291 26.2166 82.5291 25.2593V21.3426H79.0555V25.2593C79.0555 26.2166 78.274 26.9999 77.319 26.9999C76.3639 26.9999 75.5824 26.2166 75.5824 25.2593V21.3426ZM78.6225 5.09387C78.1447 5.09387 77.754 5.48554 77.754 5.96442C77.754 6.4433 78.1447 6.83497 78.6225 6.83497C79.1003 6.83497 79.491 6.4433 79.491 5.96442C79.4905 5.48554 79.0997 5.09387 78.6225 5.09387ZM82.0951 5.96442C82.0951 5.48554 82.4859 5.09387 82.9636 5.09387C83.4414 5.09387 83.8321 5.48554 83.8321 5.96442C83.8321 6.4433 83.4414 6.83497 82.9636 6.83497C82.4859 6.83497 82.0951 6.4433 82.0951 5.96442Z" fill="#89919B"/>
<path d="M151.993 14.8587C151.958 11.576 154.726 10.0051 154.849 9.92626C153.294 7.70215 150.875 7.39622 150.01 7.36243C147.954 7.15597 145.992 8.54863 144.946 8.54863C143.903 8.54863 142.289 7.39059 140.581 7.42062C138.334 7.4544 136.266 8.70065 135.108 10.6676C132.775 14.6316 134.51 20.5025 136.783 23.7214C137.895 25.2942 139.222 27.0604 140.96 26.9984C142.636 26.9327 143.268 25.9361 145.295 25.9361C147.321 25.9361 147.89 26.9984 149.662 26.9665C151.465 26.9327 152.606 25.3618 153.708 23.7852C154.985 21.959 155.51 20.1891 155.543 20.1009C155.501 20.0784 152.029 18.7777 151.993 14.8587Z" fill="#89919B"/>
<path d="M148.512 5.38756C149.384 4.22697 149.975 2.6105 149.814 1C148.554 1.05574 147.033 1.91773 146.129 3.08031C145.319 4.10952 144.614 5.75187 144.802 7.33051C146.205 7.45195 147.64 6.54616 148.512 5.38756Z" fill="#89919B"/>
<path d="M0 4.375V13.125H12.25V2.84375L0 4.375Z" fill="#89919B"/>
<path d="M14 2.625V13.125H28V0.875L14 2.625Z" fill="#89919B"/>
<path d="M14 14.875V25.375L28 27.125V14.875H14Z" fill="#89919B"/>
<path d="M0 14.875V23.625L12.25 25.1562V14.875H0Z" fill="#89919B"/>
</svg>
