<svg xmlns="http://www.w3.org/2000/svg" width="112" height="112" viewBox="0 0 112 112"><defs><style>.a{fill:#1f2a42;}.b{fill:none;stroke:#fff;stroke-linecap:round;stroke-width:2.5px;}</style></defs><g transform="translate(-232 -3899.315)"><circle class="a" cx="56" cy="56" r="56" transform="translate(232 3899.315)"/><g transform="translate(-1)"><path class="b" d="M28.689,14.345A14.345,14.345,0,1,1,14.345,0,14.345,14.345,0,0,1,28.689,14.345Z" transform="translate(274.646 3941.742)"/><path class="b" d="M7.823,3.912A3.912,3.912,0,1,1,3.912,0,3.912,3.912,0,0,1,7.823,3.912Z" transform="translate(260.955 3949.571)"/><path class="b" d="M11.735,6.521V3.912C11.735,1.754,9.107,0,5.867,0S0,1.754,0,3.918v2.61" transform="translate(259 3957.388)"/><path class="b" d="M7.823,3.912A3.912,3.912,0,1,1,3.912,0,3.912,3.912,0,0,1,7.823,3.912Z" transform="translate(309.196 3949.571)"/><path class="b" d="M11.735,6.521V3.912C11.735,1.754,9.107,0,5.867,0S0,1.754,0,3.912v2.61" transform="translate(307.24 3957.388)"/><path class="b" d="M6.521,0V6.521H0" transform="translate(303.329 3936.528)"/><path class="b" d="M0,11.735a24.413,24.413,0,0,1,41.726,0" transform="translate(268.125 3931.315)"/><path class="b" d="M0,6.515V0H6.521" transform="translate(268.125 3969.129)"/><path class="b" d="M41.72,0A24.418,24.418,0,0,1,20.86,11.735,24.389,24.389,0,0,1,0,0" transform="translate(268.131 3969.129)"/><path class="b" d="M0,9.131v1.3a2.608,2.608,0,0,0,2.61,2.61H5.22a2.608,2.608,0,0,0,2.61-2.61V9.706A2.61,2.61,0,0,0,6.045,7.23L1.785,5.812A2.61,2.61,0,0,1,0,3.337V2.61A2.608,2.608,0,0,1,2.61,0H5.22a2.608,2.608,0,0,1,2.61,2.61v1.3" transform="translate(285.079 3949.565)"/><path class="b" d="M0,3.912V0" transform="translate(288.99 3945.66)"/><path class="b" d="M0,0V3.912" transform="translate(288.99 3962.608)"/></g></g></svg>