<svg xmlns="http://www.w3.org/2000/svg" width="112" height="112" viewBox="0 0 112 112"><defs><style>.a{fill:#ee743b;}.b{fill:none;stroke:#fff;stroke-linecap:round;stroke-width:2.5px;}</style></defs><g transform="translate(-664 -3859.315)"><path class="a" d="M56,0A56,56,0,1,1,0,56,56,56,0,0,1,56,0Z" transform="translate(664 3859.315)"/><g transform="translate(691.999 3890.315)"><path class="b" d="M0,21.487a2.973,2.973,0,0,1,2.51-1.252H20.961c1.393,0,9.058-7.683,10.034-8.776A67.219,67.219,0,0,0,37.267,1.425,5.008,5.008,0,0,0,32.253.173c-2.216.517-3.521,2.1-5.014,5.014L21.779,8.021" transform="translate(18.813 27.419)"/><path class="b" d="M17.288,8.782H28.574c5.014,0,5.014-6.272,0-6.272H21.05C20,2.51,18.046,0,16.388,0H10.116c-1.7,0-3.8,1.375-5.014,2.51C3.221,4.391,0,7.436,0,7.436" transform="translate(8.691 31.348)"/><path class="b" d="M0,0H8.864V19.51H0Z" transform="translate(0 42.637) rotate(-45)"/><path class="b" d="M0,0,2.5,2.51" transform="translate(6.275 42.634)"/><path class="b" d="M0,0V8.829a1.253,1.253,0,0,0,1.252,1.252H28.838A1.253,1.253,0,0,0,30.09,8.829V0" transform="translate(13.44 16.247)"/><path class="b" d="M17.558,10.028c5.014,0,10.034,0,12.538-2.51V1.252A1.253,1.253,0,0,0,28.844,0H1.252A1.253,1.253,0,0,0,0,1.252V7.524c2.51,2.51,7.524,2.51,12.538,2.51" transform="translate(13.44 5.02)"/><path class="b" d="M0,5.014V1.252A1.253,1.253,0,0,1,1.252,0H8.776a1.253,1.253,0,0,1,1.252,1.252V5.014" transform="translate(23.474 0)"/><path class="b" d="M4.861,6.272H.159A.158.158,0,0,1,0,6.113V.159A.158.158,0,0,1,.159,0h4.7A.158.158,0,0,1,5.02.159V6.113A.158.158,0,0,1,4.861,6.272Z" transform="translate(25.978 12.538)"/></g></g></svg>