<svg xmlns="http://www.w3.org/2000/svg" width="112" height="112" viewBox="0 0 112 112"><defs><style>.a{fill:#f7a823;}.b{fill:none;stroke:#fff;stroke-linecap:round;stroke-width:2.5px;}</style></defs><g transform="translate(-1070 -3899)"><circle class="a" cx="56" cy="56" r="56" transform="translate(1070 3899)"/><g transform="translate(1105 3931)"><path class="b" d="M0,8.376V9.57a2.393,2.393,0,0,0,2.394,2.394H4.788A2.393,2.393,0,0,0,7.182,9.57V8.9A2.394,2.394,0,0,0,5.545,6.632l-3.908-1.3A2.394,2.394,0,0,1,0,3.061V2.394A2.393,2.393,0,0,1,2.394,0H4.788A2.393,2.393,0,0,1,7.182,2.394V3.588" transform="translate(14.352 13.152)"/><path class="b" d="M0,3.588V0" transform="translate(17.941 9.57)"/><path class="b" d="M0,0V3.588" transform="translate(17.941 25.117)"/><path class="b" d="M0,28.06A24.794,24.794,0,0,1,6.324,17.469L23.031.762a2.256,2.256,0,0,1,3.381,0l.847.847a2.256,2.256,0,0,1,0,3.381L10.551,21.7A24.8,24.8,0,0,1,0,28.06Z" transform="translate(23.171 13.001)"/><path class="b" d="M.847,0,5.92,5.074c.919.919,1.934,3.14.847,4.227L0,16.068" transform="translate(41.976 17.144)"/><path class="b" d="M0,0,4.227,4.227" transform="translate(32.674 27.292)"/><path class="b" d="M0,3.152c1.194-1.7,3.588-5.1,4.782-1.7s4.782,1.7,5.982,0" transform="translate(7.176 38.447)"/><path class="b" d="M35.881,18.042V0H4.782L0,4.782V49.04H35.881V39.767" transform="translate(0 0)"/><path class="b" d="M3.588,0V3.588H0" transform="translate(3.588 3.588)"/></g></g></svg>