<svg fill="none" height="472" viewBox="0 0 652 472" width="652" xmlns="http://www.w3.org/2000/svg" xmlns:xlink="http://www.w3.org/1999/xlink"><filter id="a" color-interpolation-filters="sRGB" filterUnits="userSpaceOnUse" height="299.986" width="234.788" x="310.904" y="11.6069"><feFlood flood-opacity="0" result="BackgroundImageFix"/><feColorMatrix in="SourceAlpha" type="matrix" values="0 0 0 0 0 0 0 0 0 0 0 0 0 0 0 0 0 0 127 0"/><feOffset dy="7"/><feGaussianBlur stdDeviation="30"/><feColorMatrix type="matrix" values="0 0 0 0 0.678431 0 0 0 0 0.788235 0 0 0 0 1 0 0 0 0.4 0"/><feBlend in2="BackgroundImageFix" mode="normal" result="effect1_dropShadow"/><feBlend in="SourceGraphic" in2="effect1_dropShadow" mode="normal" result="shape"/></filter><filter id="b" color-interpolation-filters="sRGB" filterUnits="userSpaceOnUse" height="471.261" width="472.04" x="73.1577" y=".369385"><feFlood flood-opacity="0" result="BackgroundImageFix"/><feColorMatrix in="SourceAlpha" type="matrix" values="0 0 0 0 0 0 0 0 0 0 0 0 0 0 0 0 0 0 127 0"/><feOffset dy="7"/><feGaussianBlur stdDeviation="30"/><feColorMatrix type="matrix" values="0 0 0 0 0.678431 0 0 0 0 0.788235 0 0 0 0 1 0 0 0 0.4 0"/><feBlend in2="BackgroundImageFix" mode="normal" result="effect1_dropShadow"/><feBlend in="SourceGraphic" in2="effect1_dropShadow" mode="normal" result="shape"/></filter><filter id="c" color-interpolation-filters="sRGB" filterUnits="userSpaceOnUse" height="417.905" width="418.565" x="99.895" y="29.2708"><feFlood flood-opacity="0" result="BackgroundImageFix"/><feColorMatrix in="SourceAlpha" type="matrix" values="0 0 0 0 0 0 0 0 0 0 0 0 0 0 0 0 0 0 127 0"/><feOffset dy="7"/><feGaussianBlur stdDeviation="30"/><feColorMatrix type="matrix" values="0 0 0 0 0.678431 0 0 0 0 0.788235 0 0 0 0 1 0 0 0 0.4 0"/><feBlend in2="BackgroundImageFix" mode="normal" result="effect1_dropShadow"/><feBlend in="SourceGraphic" in2="effect1_dropShadow" mode="normal" result="shape"/></filter><filter id="d" color-interpolation-filters="sRGB" filterUnits="userSpaceOnUse" height="58.897" width="58.9388" x="447.682" y="274.907"><feFlood flood-opacity="0" result="BackgroundImageFix"/><feColorMatrix in="SourceAlpha" type="matrix" values="0 0 0 0 0 0 0 0 0 0 0 0 0 0 0 0 0 0 127 0"/><feOffset dy="7"/><feGaussianBlur stdDeviation="10"/><feColorMatrix type="matrix" values="0 0 0 0 0.192157 0 0 0 0 0.47451 0 0 0 0 1 0 0 0 1 0"/><feBlend in2="BackgroundImageFix" mode="normal" result="effect1_dropShadow"/><feBlend in="SourceGraphic" in2="effect1_dropShadow" mode="normal" result="shape"/></filter><filter id="e" color-interpolation-filters="sRGB" filterUnits="userSpaceOnUse" height="58.897" width="58.9388" x="425.875" y="107.392"><feFlood flood-opacity="0" result="BackgroundImageFix"/><feColorMatrix in="SourceAlpha" type="matrix" values="0 0 0 0 0 0 0 0 0 0 0 0 0 0 0 0 0 0 127 0"/><feOffset dy="7"/><feGaussianBlur stdDeviation="10"/><feColorMatrix type="matrix" values="0 0 0 0 0.192157 0 0 0 0 0.47451 0 0 0 0 1 0 0 0 1 0"/><feBlend in2="BackgroundImageFix" mode="normal" result="effect1_dropShadow"/><feBlend in="SourceGraphic" in2="effect1_dropShadow" mode="normal" result="shape"/></filter><filter id="f" color-interpolation-filters="sRGB" filterUnits="userSpaceOnUse" height="58.897" width="58.9388" x="112.463" y="262.217"><feFlood flood-opacity="0" result="BackgroundImageFix"/><feColorMatrix in="SourceAlpha" type="matrix" values="0 0 0 0 0 0 0 0 0 0 0 0 0 0 0 0 0 0 127 0"/><feOffset dy="7"/><feGaussianBlur stdDeviation="10"/><feColorMatrix type="matrix" values="0 0 0 0 0.192157 0 0 0 0 0.47451 0 0 0 0 1 0 0 0 1 0"/><feBlend in2="BackgroundImageFix" mode="normal" result="effect1_dropShadow"/><feBlend in="SourceGraphic" in2="effect1_dropShadow" mode="normal" result="shape"/></filter><filter id="g" color-interpolation-filters="sRGB" filterUnits="userSpaceOnUse" height="58.897" width="58.9388" x="329.25" y="37.6553"><feFlood flood-opacity="0" result="BackgroundImageFix"/><feColorMatrix in="SourceAlpha" type="matrix" values="0 0 0 0 0 0 0 0 0 0 0 0 0 0 0 0 0 0 127 0"/><feOffset dy="7"/><feGaussianBlur stdDeviation="10"/><feColorMatrix type="matrix" values="0 0 0 0 0.192157 0 0 0 0 0.47451 0 0 0 0 1 0 0 0 1 0"/><feBlend in2="BackgroundImageFix" mode="normal" result="effect1_dropShadow"/><feBlend in="SourceGraphic" in2="effect1_dropShadow" mode="normal" result="shape"/></filter><filter id="h" color-interpolation-filters="sRGB" filterUnits="userSpaceOnUse" height="58.897" width="58.9388" x="152.494" y="82.0564"><feFlood flood-opacity="0" result="BackgroundImageFix"/><feColorMatrix in="SourceAlpha" type="matrix" values="0 0 0 0 0 0 0 0 0 0 0 0 0 0 0 0 0 0 127 0"/><feOffset dy="7"/><feGaussianBlur stdDeviation="10"/><feColorMatrix type="matrix" values="0 0 0 0 0.192157 0 0 0 0 0.47451 0 0 0 0 1 0 0 0 1 0"/><feBlend in2="BackgroundImageFix" mode="normal" result="effect1_dropShadow"/><feBlend in="SourceGraphic" in2="effect1_dropShadow" mode="normal" result="shape"/></filter><g filter="url(#a)" opacity=".3"><path d="m484.997 244.592c3.416-38.241-5.821-76.545-26.296-109.051-20.476-32.506-51.062-57.4214-87.078-70.9341l-.719 1.908c35.598 13.3558 65.829 37.9821 86.067 70.1111 20.238 32.128 29.367 69.988 25.991 107.786z" fill="#c0d5ff"/></g><g filter="url(#b)" opacity=".3"><ellipse cx="309.177" cy="229" fill="#fff" rx="176.02" ry="175.631"/></g><g filter="url(#c)" opacity=".3"><ellipse cx="309.178" cy="231.223" fill="#fff" rx="149.283" ry="148.952"/></g><g fill="#3179ff" filter="url(#d)" opacity=".25"><ellipse cx="477.151" cy="297.356" rx="9.46942" ry="9.44848"/><ellipse cx="477.151" cy="297.356" fill-opacity=".3" rx="9.46942" ry="9.44848"/></g><g fill="#3179ff" filter="url(#e)" opacity=".2"><path d="m464.814 129.84c0 5.218-4.24 9.449-9.47 9.449-5.229 0-9.469-4.231-9.469-9.449s4.24-9.448 9.469-9.448c5.23 0 9.47 4.23 9.47 9.448z"/><path d="m464.814 129.84c0 5.218-4.24 9.449-9.47 9.449-5.229 0-9.469-4.231-9.469-9.449s4.24-9.448 9.469-9.448c5.23 0 9.47 4.23 9.47 9.448z" fill-opacity=".3"/></g><g fill="#3179ff" filter="url(#f)" opacity=".1"><ellipse cx="141.933" cy="284.666" rx="9.46942" ry="9.44848"/><ellipse cx="141.933" cy="284.666" fill-opacity=".3" rx="9.46942" ry="9.44848"/></g><g fill="#3179ff" filter="url(#g)" opacity=".3"><ellipse cx="358.719" cy="60.1038" rx="9.46942" ry="9.44848"/><ellipse cx="358.719" cy="60.1038" fill-opacity=".3" rx="9.46942" ry="9.44848"/></g><g fill="#3179ff" filter="url(#h)" opacity=".05"><ellipse cx="181.963" cy="104.505" rx="9.46942" ry="9.44848"/><ellipse cx="181.963" cy="104.505" fill-opacity=".3" rx="9.46942" ry="9.44848"/></g><path d="m178.713 103.824c.206 0 .413-.089.561-.236l.798.413v.088c0 .443.355.797.798.797s.798-.354.798-.797c0-.118-.029-.236-.089-.354l1.094-1.091c.118.059.236.089.355.089.443 0 .798-.354.798-.796 0-.089-.03-.177-.03-.236l.946-.708c.118.088.295.147.443.147.444 0 .798-.354.798-.796 0-.4423-.354-.7961-.798-.7961-.443 0-.798.3538-.798.7961 0 .089.03.177.03.236l-.946.708c-.118-.089-.296-.148-.443-.148-.444 0-.798.354-.798.797 0 .118.029.235.088.353l-1.093 1.092c-.118-.059-.237-.089-.355-.089-.207 0-.414.089-.561.236l-.798-.413c0-.029 0-.059 0-.088 0-.443-.355-.797-.798-.797-.444 0-.798.354-.798.797 0 .442.354.796.798.796z" fill="#c2d7ff"/><path d="m186.308 108.189h-.295v-5.721c0-.148-.118-.266-.266-.266h-1.094c-.148 0-.266.118-.266.266v5.691h-.532v-4.069c0-.148-.118-.266-.266-.266h-1.093c-.148 0-.266.118-.266.266v4.069h-.532v-1.916c0-.148-.119-.266-.266-.266h-1.094c-.148 0-.266.118-.266.266v1.916h-.532v-2.978c0-.148-.118-.266-.266-.266h-1.093c-.148 0-.266.118-.266.266v3.008h-.296c-.148 0-.266.118-.266.265 0 .148.118.266.266.266h8.689c.148 0 .266-.118.266-.266 0-.147-.118-.265-.266-.265z" fill="#c2d7ff"/><path d="m452.094 129.53c.207 0 .414-.089.561-.236l.798.413v.088c0 .443.355.796.798.796.444 0 .798-.353.798-.796 0-.118-.029-.236-.088-.354l1.093-1.091c.119.059.237.089.355.089.443 0 .798-.354.798-.797 0-.088-.03-.177-.03-.236l.946-.707c.118.088.296.147.444.147.443 0 .798-.354.798-.796s-.355-.796-.798-.796c-.444 0-.798.354-.798.796 0 .088.029.177.029.236l-.946.708c-.118-.089-.295-.148-.443-.148-.443 0-.798.354-.798.796 0 .118.03.236.089.354l-1.094 1.091c-.118-.059-.236-.088-.355-.088-.206 0-.413.088-.561.236l-.798-.413c0-.03 0-.059 0-.088 0-.443-.355-.797-.798-.797s-.798.354-.798.797c0 .442.355.796.798.796z" fill="#83aeff"/><path d="m459.69 133.895h-.296v-5.721c0-.147-.118-.265-.266-.265h-1.093c-.148 0-.266.118-.266.265v5.692h-.532v-4.07c0-.147-.119-.265-.266-.265h-1.094c-.148 0-.266.118-.266.265v4.07h-.532v-1.917c0-.148-.118-.266-.266-.266h-1.094c-.147 0-.266.118-.266.266v1.917h-.532v-2.979c0-.147-.118-.265-.266-.265h-1.093c-.148 0-.266.118-.266.265v3.008h-.296c-.147 0-.266.118-.266.266 0 .147.119.265.266.265h8.69c.148 0 .266-.118.266-.265 0-.148-.118-.266-.266-.266z" fill="#83aeff"/><g fill="#1f6bf7"><path d="m2.23251 267.254c-.69456 0-1.240279-.198-1.637169-.594s-.595341-.941-.595341-1.634v-99.498c0-.693.198451-1.237.595341-1.633s.942609-.594 1.637169-.594h23.51569c.6946 0 1.2403.198 1.6372.594s.5953.94.5953 1.633v99.498c0 .693-.1984 1.238-.5953 1.634s-.9426.594-1.6372.594z"/><path d="m118.163 165.528c0-.693.199-1.237.596-1.633s.942-.594 1.637-.594h23.367c.694 0 1.24.198 1.637.594s.595.94.595 1.633v99.498c0 .693-.198 1.238-.595 1.634s-.943.594-1.637.594h-24.558c-1.29 0-2.133-.545-2.53-1.634l-20.6877-48.412c-.0993-.396-.2977-.594-.5954-.594-.2976 0-.4465.247-.4465.742l.2977 47.67c0 .693-.1985 1.238-.5953 1.634-.3969.396-.9427.594-1.6372.594h-23.3669c-.6946 0-1.2403-.198-1.6372-.594s-.5953-.941-.5953-1.634v-99.498c0-.693.1984-1.237.5953-1.633s.9426-.594 1.6372-.594h24.4087c1.2899 0 2.1333.544 2.5302 1.633l20.6874 48.413c.1.396.298.594.596.594.297-.099.446-.396.446-.891z"/><path d="m187.635 267.254c-.694 0-1.24-.198-1.637-.594s-.595-.941-.595-1.634v-99.498c0-.693.198-1.237.595-1.633s.943-.594 1.637-.594h33.785c7.343 0 13.792 1.336 19.349 4.009 5.556 2.575 9.872 6.238 12.948 10.99s4.614 10.247 4.614 16.484v40.839c0 6.237-1.538 11.781-4.614 16.632-3.076 4.752-7.392 8.465-12.948 11.138-5.557 2.574-12.006 3.861-19.349 3.861zm25.748-24.8c0 .594.298.891.893.891l7.293-.149c2.481 0 4.515-.99 6.102-2.97 1.687-1.98 2.58-4.603 2.679-7.871v-34.304c0-3.267-.843-5.891-2.53-7.871-1.587-1.98-3.721-2.97-6.4-2.97h-7.144c-.595 0-.893.297-.893.891z"/><path d="m299.377 267.254c-.695 0-1.241-.198-1.638-.594-.396-.396-.595-.941-.595-1.634v-99.498c0-.693.199-1.237.595-1.633.397-.396.943-.594 1.638-.594h23.515c.695 0 1.241.198 1.638.594.396.396.595.94.595 1.633v99.498c0 .693-.199 1.238-.595 1.634-.397.396-.943.594-1.638.594z"/><path d="m400.275 268.442c-7.342 0-13.792-1.435-19.348-4.307-5.556-2.871-9.873-6.93-12.948-12.177-3.076-5.346-4.614-11.534-4.614-18.563v-36.681c0-6.93 1.538-13.019 4.614-18.266 3.075-5.247 7.392-9.256 12.948-12.029 5.556-2.871 12.006-4.306 19.348-4.306 7.343 0 13.743 1.386 19.2 4.158 5.556 2.772 9.873 6.683 12.948 11.732 3.076 5.049 4.614 10.94 4.614 17.672 0 .693-.198 1.287-.595 1.782-.397.396-.943.594-1.637.594l-23.516 1.039c-1.488 0-2.232-.693-2.232-2.079v-1.633c0-2.871-.794-5.148-2.382-6.831-1.587-1.683-3.721-2.525-6.4-2.525s-4.862.891-6.548 2.673c-1.588 1.683-2.382 3.911-2.382 6.683v39.799c0 2.772.794 5.049 2.382 6.831 1.686 1.683 3.869 2.525 6.548 2.525s4.813-.842 6.4-2.525c1.588-1.683 2.382-3.96 2.382-6.831v-1.782c0-1.386.744-2.079 2.232-2.079l23.516 1.039c.694 0 1.24.198 1.637.594s.595.941.595 1.634c0 6.732-1.538 12.672-4.614 17.821-3.075 5.148-7.392 9.108-12.948 11.88-5.557 2.772-11.956 4.158-19.2 4.158z"/><path d="m542.556 184.982c0 .694-.199 1.238-.596 1.634-.396.396-.942.594-1.637.594h-36.315c-.596 0-.893.297-.893.891v13.96c0 .594.297.891.893.891h20.985c.695 0 1.241.198 1.637.594.397.396.596.94.596 1.633v19.306c0 .693-.199 1.237-.596 1.633-.396.396-.942.594-1.637.594h-20.985c-.596 0-.893.297-.893.891v14.851c0 .594.297.891.893.891h36.315c.695 0 1.241.198 1.637.594.397.396.596.94.596 1.633v19.454c0 .693-.199 1.238-.596 1.634-.396.396-.942.594-1.637.594h-62.956c-.695 0-1.241-.198-1.638-.594-.396-.396-.595-.941-.595-1.634v-99.498c0-.693.199-1.237.595-1.633.397-.396.943-.594 1.638-.594h62.956c.695 0 1.241.198 1.637.594.397.396.596.94.596 1.633z"/><path d="m615.609 268.442c-7.343 0-13.792-1.287-19.349-3.861-5.457-2.574-9.724-6.138-12.799-10.692-2.977-4.654-4.465-10-4.465-16.039v-3.415c0-.694.198-1.238.595-1.634s.943-.594 1.637-.594h23.069c.695 0 1.241.198 1.638.594.396.396.595.94.595 1.634v2.079c0 2.178.893 4.059 2.679 5.643 1.885 1.584 4.366 2.376 7.442 2.376 2.48 0 4.316-.594 5.506-1.782 1.191-1.287 1.786-2.723 1.786-4.307 0-1.881-.843-3.415-2.53-4.604-1.587-1.287-4.663-2.97-9.228-5.049l-3.571-1.782c-5.557-2.673-10.369-5.346-14.437-8.019s-7.591-6.188-10.568-10.544c-2.976-4.455-4.465-9.752-4.465-15.89 0-6.039 1.489-11.336 4.465-15.89 3.076-4.653 7.244-8.217 12.502-10.692 5.358-2.574 11.461-3.861 18.307-3.861 7.045 0 13.345 1.336 18.902 4.009 5.556 2.673 9.873 6.436 12.948 11.287 3.176 4.851 4.763 10.395 4.763 16.632v2.376c0 .693-.198 1.238-.595 1.634s-.943.594-1.637.594h-23.07c-.694 0-1.24-.198-1.637-.594s-.595-.941-.595-1.634v-2.079c0-2.178-.893-4.108-2.679-5.791-1.687-1.683-3.969-2.525-6.847-2.525-2.182 0-3.968.594-5.357 1.782-1.29 1.089-1.935 2.624-1.935 4.604 0 2.178 1.091 4.158 3.274 5.94 2.282 1.683 6.698 4.059 13.246 7.128.992.594 2.481 1.386 4.465 2.376 5.259 2.871 9.476 5.445 12.651 7.722 3.175 2.178 5.854 5.099 8.037 8.762 2.183 3.564 3.274 7.97 3.274 13.217 0 9.504-3.324 17.029-9.971 22.573-6.549 5.544-15.231 8.316-26.046 8.316z"/></g><path d="m571.247 255.8c.192.342.894 1.59.55 2.678-.36 1.125-1.538 1.091-3.179 2.168-2.715 1.779-2.149 3.587-4.778 4.936-.444.226-2.415 1.237-3.625.384-.713-.503-.838-1.428-.855-1.566-.224-1.656 1.73-2.543 4.776-5.417 3.269-3.074 4.338-5.135 5.65-4.745.7.217 1.155 1.024 1.461 1.562z" fill="#f9fafc" stroke="#cadcff" stroke-miterlimit="10" stroke-width="2"/><path d="m589.479 192.077c-.492-.073-3.163-.528-3.653-.599" stroke="#010101" stroke-miterlimit="10"/><path d="m590.952 183.741c-.819.036-2.619-.255-3.436-.218" stroke="#010101" stroke-miterlimit="10"/><path d="m602.25 190.56c1.833.23 4.919 7.839 4.919 7.839s.337 8.232-1.498 9.096c-1.582.746-3.817-5.584-4.561-8.277-.952-3.445-.671-8.889 1.14-8.658z" fill="#afcbff" stroke="#cadcff" stroke-miterlimit="10" stroke-width="2"/><path d="m591.022 182.471c-.752.536-1.944-.31-2.592-.826-.512-.408-.687-1.088-1.154-2.063-.715-1.462-2.446-.919-3.211-2.246-.766-1.328.505-2.726-.483-4.011-.465-.605-1.108-.371-1.362-.878 2.785-2.355 2.768-5.206 3.804-5.975 1.975-1.01 3.802.604 5.417 1.881 2.642 2.084 4.002 7.955 2.615 11.156-.519 1.216-2.144 2.332-3.034 2.962z" fill="#f6f6f6" stroke="#cadcff" stroke-miterlimit="10" stroke-width="2"/><path d="m595.521 176.571s3.664-3.012 3.233-6.026c.338-2.707-2.64-6.318-6.248-6.995-3.769-.707-7.499 1.921-7.326 2.905.106.594 1.567.325 2.371 1.508.904 1.345-.21 2.807.538 3.55 1.069 1.064 4.177-1.116 4.956-.215.613.713-1.166 2.261-.646 4.418.336 1.397 1.538 2.649 2.261 2.476.498-.126.861-1.621.861-1.621z" fill="#1f6bf7"/><path d="m590.717 258.703c.325.22 1.506 1.033 1.677 2.159.175 1.168-.892 1.654-1.892 3.348-1.652 2.793-.346 4.167-2.115 6.532-.296.399-1.619 2.176-3.077 1.944-.863-.137-1.383-.911-1.459-1.026-.933-1.389.43-3.049 1.892-6.968 1.565-4.201 1.623-6.52 2.973-6.75.724-.119 1.494.405 2.001.761z" fill="#f9fafc" stroke="#cadcff" stroke-miterlimit="10" stroke-width="2"/><path d="m577.18 223.223c-3.423.321-5.89 1.406-6.307 5.187 4.955 11.171 9.49 21.051 14.07 29.887l-.177 8.547c2.598.161 3.692-4.063 4.456-9.259-1.279-7.919-3.335-18.241-9.577-24.68 5.787-1.986-1.426-6.193-2.465-9.682z" fill="#f6f6f6" stroke="#cadcff" stroke-miterlimit="10" stroke-width="2"/><path d="m608.392 213.875c2.356 1.775 4.865 13.678-7.626 17.929-6.675 2.273-20.249.625-20.249.625l-3.397-9.146c4.911-2.649 9.452-5.932 13.506-9.765 0 0 12.911-1.694 17.766.357z" fill="#aecaff"/><path d="m575.944 239.592-5.832 15.439c-2.65 3.944-5.165 6.453-7.307 5.055l3.865-6.319 4.286-25.407z" fill="#f6f6f6" stroke="#cadcff" stroke-miterlimit="10" stroke-width="2"/><path d="m569.497 179.696s-2.555-3.811-2.986-3.63c-.294.128.052.858-.323 1.29-.921 1.063-4.446-1.077-5.115-.86-3.956 1.27 4.026 6.808 7.816 6.201z" fill="#f6f6f6" stroke="#cadcff" stroke-miterlimit="10" stroke-width="2"/><path d="m608.49 213.862s-12.078 2.482-17.81-.277c0 0 .346-1.685.139-4.728-.172-2.522-.252-4.981-1.408-5.467-6.942-2.916-4.69-8.199-3.517-11.945-7.786-1.465-10.242-3.5-17.716-7.834l1.329-5.465c5.813 3.548 17.862 4.822 17.862 4.822l1.138-1.212s3.879-1.005 4.454-2.442c3.122-1.062 4.79 4.657 7.707 8.771 4.807 6.772 4.378 11.404 4.999 19.057.898 4.678 2.823 6.72 2.823 6.72z" fill="#afcbff" stroke="#cadcff" stroke-miterlimit="10" stroke-width="2"/><path d="m594.882 177.965c.902.048 2.281 2.144 2.589 4.402.544 4.013-2.662 5.478-2.029 9.151.465 2.703 2.454 3.406 1.958 5.172-.522 1.855-3.335 3.265-4.615 2.514-1.052-.614 3.351-.768.069-9.501-1.971-5.252-1.006-11.897 2.028-11.738z" fill="#1f6bf7"/><path d="m591.294 184.194c-.385 0-3.738-1.188-4.123-1.188" stroke="#cadcff" stroke-miterlimit="10" stroke-width="2"/><path d="m589.354 191.993c-1.195-.117-2.382-.31-3.552-.577" stroke="#cadcff" stroke-miterlimit="10" stroke-width="2"/><path d="m577.969 231.013 1.706 1.907" stroke="#cadcff" stroke-miterlimit="10" stroke-width="2"/><path d="m355.469 59.1306c.207 0 .414-.0885.561-.2359l.798.4128v.0885c0 .4423.355.7962.798.7962.444 0 .798-.3539.798-.7962 0-.118-.029-.2359-.088-.3539l1.093-1.0911c.119.059.237.0884.355.0884.443 0 .798-.3538.798-.7962 0-.0885-.03-.1769-.03-.2359l.946-.7078c.118.0885.296.1475.444.1475.443 0 .798-.3539.798-.7963 0-.4423-.355-.7962-.798-.7962-.444 0-.798.3539-.798.7962 0 .0885.029.177.029.236l-.946.7077c-.118-.0885-.295-.1474-.443-.1474-.443 0-.798.3538-.798.7962 0 .118.03.2359.089.3539l-1.094 1.0911c-.118-.059-.236-.0884-.355-.0884-.206 0-.413.0884-.561.2359l-.798-.4129c0-.0295 0-.059 0-.0885 0-.4423-.355-.7962-.798-.7962s-.798.3539-.798.7962c0 .4424.355.7963.798.7963z" fill="#0059ff"/><path d="m363.065 63.496h-.296v-5.7211c0-.1474-.118-.2654-.266-.2654h-1.093c-.148 0-.266.118-.266.2654v5.6917h-.532v-4.0697c0-.1475-.119-.2654-.266-.2654h-1.094c-.148 0-.266.1179-.266.2654v4.0697h-.532v-1.9169c0-.1475-.118-.2654-.266-.2654h-1.094c-.147 0-.266.1179-.266.2654v1.9169h-.532v-2.9786c0-.1474-.118-.2654-.266-.2654h-1.093c-.148 0-.266.118-.266.2654v3.008h-.296c-.147 0-.266.118-.266.2655 0 .1474.119.2654.266.2654h8.69c.148 0 .266-.118.266-.2654 0-.1475-.118-.2655-.266-.2655z" fill="#0059ff"/><path d="m473.901 296.459c.206 0 .413-.089.561-.236l.798.413v.088c0 .443.355.797.798.797s.798-.354.798-.797c0-.118-.029-.236-.089-.354l1.094-1.091c.118.059.236.089.355.089.443 0 .798-.354.798-.796 0-.089-.03-.177-.03-.236l.946-.708c.118.088.295.147.443.147.444 0 .798-.354.798-.796s-.354-.796-.798-.796c-.443 0-.798.354-.798.796 0 .089.03.177.03.236l-.946.708c-.118-.089-.296-.148-.443-.148-.444 0-.798.354-.798.797 0 .118.029.235.088.353l-1.093 1.092c-.118-.059-.237-.089-.355-.089-.207 0-.414.089-.561.236l-.798-.413c0-.029 0-.059 0-.088 0-.443-.355-.797-.798-.797-.444 0-.798.354-.798.797 0 .442.354.796.798.796z" fill="#508cff"/><path d="m481.496 300.824h-.295v-5.721c0-.147-.118-.265-.266-.265h-1.094c-.148 0-.266.118-.266.265v5.692h-.532v-4.07c0-.147-.118-.265-.266-.265h-1.093c-.148 0-.266.118-.266.265v4.07h-.532v-1.917c0-.148-.119-.266-.266-.266h-1.094c-.148 0-.266.118-.266.266v1.917h-.532v-2.979c0-.147-.118-.265-.266-.265h-1.093c-.148 0-.266.118-.266.265v3.008h-.296c-.148 0-.266.118-.266.266 0 .147.118.265.266.265h8.689c.148 0 .266-.118.266-.265 0-.148-.118-.266-.266-.266z" fill="#508cff"/><path d="m138.682 283.308c.207 0 .414-.088.561-.236l.798.413v.089c0 .442.355.796.798.796.444 0 .798-.354.798-.796 0-.118-.029-.236-.088-.354l1.093-1.091c.118.059.237.088.355.088.443 0 .798-.354.798-.796 0-.089-.03-.177-.03-.236l.946-.708c.118.089.296.148.443.148.444 0 .798-.354.798-.797 0-.442-.354-.796-.798-.796-.443 0-.798.354-.798.796 0 .089.03.177.03.236l-.946.708c-.118-.088-.295-.147-.443-.147-.443 0-.798.354-.798.796 0 .118.029.236.089.354l-1.094 1.091c-.118-.059-.236-.089-.355-.089-.207 0-.413.089-.561.236l-.798-.412c0-.03 0-.059 0-.089 0-.442-.355-.796-.798-.796-.444 0-.798.354-.798.796s.354.796.798.796z" fill="#0059ff"/><path d="m146.278 287.674h-.296v-5.722c0-.147-.118-.265-.266-.265h-1.093c-.148 0-.266.118-.266.265v5.692h-.532v-4.07c0-.147-.119-.265-.266-.265h-1.094c-.148 0-.266.118-.266.265v4.07h-.532v-1.917c0-.147-.118-.265-.266-.265h-1.094c-.147 0-.266.118-.266.265v1.917h-.532v-2.978c0-.148-.118-.266-.266-.266h-1.093c-.148 0-.266.118-.266.266v3.008h-.296c-.148 0-.266.117-.266.265 0 .147.118.265.266.265h8.69c.147 0 .266-.118.266-.265 0-.148-.119-.265-.266-.265z" fill="#0059ff"/></svg>