<svg xmlns="http://www.w3.org/2000/svg" xmlns:xlink="http://www.w3.org/1999/xlink" width="1366" zoomAndPan="magnify" viewBox="0 0 1024.5 576" height="768" preserveAspectRatio="xMidYMid meet" version="1.0"><defs><clipPath id="bac708f3a6"><path d="M 0 0.140625 L 1024 0.140625 L 1024 575.859375 L 0 575.859375 Z M 0 0.140625 " clip-rule="nonzero"/></clipPath><clipPath id="f877d43890"><path d="M 134.160156 125.972656 L 890.339844 125.972656 L 890.339844 126.042969 L 134.160156 126.042969 Z M 129.898438 126.042969 L 894.601562 126.042969 L 894.601562 126.664062 L 129.898438 126.664062 Z M 125.011719 126.664062 L 899.488281 126.664062 L 899.488281 127.257812 L 125.011719 127.257812 Z M 123.179688 127.257812 L 901.320312 127.257812 L 901.320312 127.878906 L 123.179688 127.878906 Z M 121.34375 127.878906 L 903.15625 127.878906 L 903.15625 128.496094 L 121.34375 128.496094 Z M 118.914062 128.496094 L 905.585938 128.496094 L 905.585938 129.09375 L 118.914062 129.09375 Z M 117.082031 129.09375 L 907.417969 129.09375 L 907.417969 129.710938 L 117.082031 129.710938 Z M 115.246094 129.710938 L 909.253906 129.710938 L 909.253906 130.308594 L 115.246094 130.308594 Z M 112.816406 130.308594 L 911.683594 130.308594 L 911.683594 130.929688 L 112.816406 130.929688 Z M 111.601562 130.929688 L 912.898438 130.929688 L 912.898438 131.546875 L 111.601562 131.546875 Z M 110.984375 131.546875 L 913.515625 131.546875 L 913.515625 132.144531 L 110.984375 132.144531 Z M 109.769531 132.144531 L 914.730469 132.144531 L 914.730469 132.761719 L 109.769531 132.761719 Z M 108.554688 132.761719 L 915.945312 132.761719 L 915.945312 133.359375 L 108.554688 133.359375 Z M 107.339844 133.359375 L 917.160156 133.359375 L 917.160156 133.976562 L 107.339844 133.976562 Z M 106.097656 133.976562 L 918.402344 133.976562 L 918.402344 134.597656 L 106.097656 134.597656 Z M 104.882812 134.597656 L 919.617188 134.597656 L 919.617188 135.195312 L 104.882812 135.195312 Z M 103.667969 135.195312 L 920.832031 135.195312 L 920.832031 135.8125 L 103.667969 135.8125 Z M 102.453125 135.8125 L 922.046875 135.8125 L 922.046875 136.410156 L 102.453125 136.410156 Z M 101.835938 136.410156 L 922.664062 136.410156 L 922.664062 137.027344 L 101.835938 137.027344 Z M 100.621094 137.027344 L 923.878906 137.027344 L 923.878906 137.648438 L 100.621094 137.648438 Z M 100 137.648438 L 924.5 137.648438 L 924.5 138.246094 L 100 138.246094 Z M 99.40625 138.246094 L 925.09375 138.246094 L 925.09375 138.863281 L 99.40625 138.863281 Z M 98.191406 138.863281 L 926.308594 138.863281 L 926.308594 139.460938 L 98.191406 139.460938 Z M 97.570312 139.460938 L 926.929688 139.460938 L 926.929688 140.078125 L 97.570312 140.078125 Z M 96.953125 140.078125 L 927.546875 140.078125 L 927.546875 140.699219 L 96.953125 140.699219 Z M 95.738281 140.699219 L 928.761719 140.699219 L 928.761719 141.292969 L 95.738281 141.292969 Z M 95.140625 141.292969 L 929.359375 141.292969 L 929.359375 141.914062 L 95.140625 141.914062 Z M 94.523438 141.914062 L 929.976562 141.914062 L 929.976562 142.511719 L 94.523438 142.511719 Z M 93.902344 142.511719 L 930.597656 142.511719 L 930.597656 143.128906 L 93.902344 143.128906 Z M 93.308594 143.128906 L 931.191406 143.128906 L 931.191406 143.75 L 93.308594 143.75 Z M 92.6875 143.75 L 931.8125 143.75 L 931.8125 144.34375 L 92.6875 144.34375 Z M 92.09375 144.34375 L 932.40625 144.34375 L 932.40625 144.964844 L 92.09375 144.964844 Z M 91.472656 144.964844 L 933.027344 144.964844 L 933.027344 145.558594 L 91.472656 145.558594 Z M 90.855469 145.558594 L 933.644531 145.558594 L 933.644531 146.179688 L 90.855469 146.179688 Z M 90.257812 146.179688 L 934.242188 146.179688 L 934.242188 146.800781 L 90.257812 146.800781 Z M 89.640625 146.800781 L 934.859375 146.800781 L 934.859375 147.394531 L 89.640625 147.394531 Z M 89.042969 147.394531 L 935.457031 147.394531 L 935.457031 148.015625 L 89.042969 148.015625 Z M 88.425781 148.015625 L 936.074219 148.015625 L 936.074219 148.609375 L 88.425781 148.609375 Z M 87.804688 148.609375 L 936.695312 148.609375 L 936.695312 149.230469 L 87.804688 149.230469 Z M 87.210938 149.230469 L 937.289062 149.230469 L 937.289062 149.851562 L 87.210938 149.851562 Z M 86.589844 149.851562 L 937.910156 149.851562 L 937.910156 150.445312 L 86.589844 150.445312 Z M 85.375 150.445312 L 939.125 150.445312 L 939.125 151.066406 L 85.375 151.066406 Z M 82.945312 151.066406 L 941.554688 151.066406 L 941.554688 151.660156 L 82.945312 151.660156 Z M 81.109375 151.660156 L 943.390625 151.660156 L 943.390625 152.28125 L 81.109375 152.28125 Z M 79.277344 152.28125 L 945.222656 152.28125 L 945.222656 152.902344 L 79.277344 152.902344 Z M 78.0625 152.902344 L 946.4375 152.902344 L 946.4375 153.496094 L 78.0625 153.496094 Z M 76.226562 153.496094 L 948.273438 153.496094 L 948.273438 154.117188 L 76.226562 154.117188 Z M 75.011719 154.117188 L 949.488281 154.117188 L 949.488281 154.710938 L 75.011719 154.710938 Z M 73.796875 154.710938 L 950.703125 154.710938 L 950.703125 155.332031 L 73.796875 155.332031 Z M 72.558594 155.332031 L 951.941406 155.332031 L 951.941406 155.949219 L 72.558594 155.949219 Z M 71.964844 155.949219 L 952.535156 155.949219 L 952.535156 156.546875 L 71.964844 156.546875 Z M 70.75 156.546875 L 953.75 156.546875 L 953.75 157.167969 L 70.75 157.167969 Z M 69.511719 157.167969 L 954.988281 157.167969 L 954.988281 157.761719 L 69.511719 157.761719 Z M 68.914062 157.761719 L 955.585938 157.761719 L 955.585938 158.382812 L 68.914062 158.382812 Z M 67.699219 158.382812 L 956.800781 158.382812 L 956.800781 159 L 67.699219 159 Z M 67.082031 159 L 957.417969 159 L 957.417969 159.597656 L 67.082031 159.597656 Z M 66.460938 159.597656 L 958.039062 159.597656 L 958.039062 160.214844 L 66.460938 160.214844 Z M 65.867188 160.214844 L 959.253906 160.214844 L 959.253906 160.8125 L 65.867188 160.8125 Z M 64.652344 160.8125 L 959.847656 160.8125 L 959.847656 161.433594 L 64.652344 161.433594 Z M 64.03125 161.433594 L 960.46875 161.433594 L 960.46875 162.050781 L 64.03125 162.050781 Z M 63.410156 162.050781 L 961.089844 162.050781 L 961.089844 162.648438 L 63.410156 162.648438 Z M 62.816406 162.648438 L 961.683594 162.648438 L 961.683594 163.265625 L 62.816406 163.265625 Z M 62.195312 163.265625 L 962.304688 163.265625 L 962.304688 163.863281 L 62.195312 163.863281 Z M 61.601562 163.863281 L 962.898438 163.863281 L 962.898438 164.484375 L 61.601562 164.484375 Z M 60.980469 164.484375 L 963.519531 164.484375 L 963.519531 165.101562 L 60.980469 165.101562 Z M 60.363281 165.101562 L 964.136719 165.101562 L 964.136719 166.316406 L 60.363281 166.316406 Z M 59.765625 166.316406 L 964.734375 166.316406 L 964.734375 166.914062 L 59.765625 166.914062 Z M 59.148438 166.914062 L 965.351562 166.914062 L 965.351562 167.53125 L 59.148438 167.53125 Z M 58.550781 167.53125 L 965.949219 167.53125 L 965.949219 168.75 L 58.550781 168.75 Z M 57.933594 168.75 L 966.566406 168.75 L 966.566406 169.367188 L 57.933594 169.367188 Z M 57.3125 169.367188 L 967.1875 169.367188 L 967.1875 169.964844 L 57.3125 169.964844 Z M 56.71875 169.964844 L 967.78125 169.964844 L 967.78125 171.203125 L 56.71875 171.203125 Z M 56.097656 171.203125 L 968.402344 171.203125 L 968.402344 171.796875 L 56.097656 171.796875 Z M 55.503906 171.796875 L 968.996094 171.796875 L 968.996094 173.015625 L 55.503906 173.015625 Z M 54.882812 173.015625 L 969.617188 173.015625 L 969.617188 174.253906 L 54.882812 174.253906 Z M 54.265625 174.253906 L 970.234375 174.253906 L 970.234375 175.46875 L 54.265625 175.46875 Z M 53.667969 175.46875 L 970.832031 175.46875 L 970.832031 176.683594 L 53.667969 176.683594 Z M 53.050781 176.683594 L 971.449219 176.683594 L 971.449219 177.898438 L 53.050781 177.898438 Z M 52.453125 177.898438 L 972.046875 177.898438 L 972.046875 179.113281 L 52.453125 179.113281 Z M 51.835938 179.113281 L 972.664062 179.113281 L 972.664062 180.949219 L 51.835938 180.949219 Z M 50.621094 180.949219 L 973.878906 180.949219 L 973.878906 181.570312 L 50.621094 181.570312 Z M 49.40625 181.570312 L 975.09375 181.570312 L 975.09375 182.164062 L 49.40625 182.164062 Z M 48.785156 182.164062 L 975.714844 182.164062 L 975.714844 182.785156 L 48.785156 182.785156 Z M 47.570312 182.785156 L 976.929688 182.785156 L 976.929688 183.40625 L 47.570312 183.40625 Z M 46.953125 183.40625 L 977.546875 183.40625 L 977.546875 184 L 46.953125 184 Z M 46.355469 184 L 978.144531 184 L 978.144531 184.621094 L 46.355469 184.621094 Z M 45.117188 184.621094 L 979.382812 184.621094 L 979.382812 185.214844 L 45.117188 185.214844 Z M 44.523438 185.214844 L 979.976562 185.214844 L 979.976562 185.835938 L 44.523438 185.835938 Z M 43.902344 185.835938 L 980.597656 185.835938 L 980.597656 186.453125 L 43.902344 186.453125 Z M 42.6875 186.453125 L 981.8125 186.453125 L 981.8125 187.050781 L 42.6875 187.050781 Z M 42.066406 187.050781 L 982.433594 187.050781 L 982.433594 187.671875 L 42.066406 187.671875 Z M 41.472656 187.671875 L 983.027344 187.671875 L 983.027344 188.265625 L 41.472656 188.265625 Z M 40.257812 188.265625 L 984.242188 188.265625 L 984.242188 188.886719 L 40.257812 188.886719 Z M 39.636719 188.886719 L 984.863281 188.886719 L 984.863281 189.503906 L 39.636719 189.503906 Z M 39.019531 189.503906 L 985.480469 189.503906 L 985.480469 190.101562 L 39.019531 190.101562 Z M 38.421875 190.101562 L 986.078125 190.101562 L 986.078125 190.722656 L 38.421875 190.722656 Z M 37.804688 190.722656 L 986.695312 190.722656 L 986.695312 191.316406 L 37.804688 191.316406 Z M 37.207031 191.316406 L 987.292969 191.316406 L 987.292969 191.9375 L 37.207031 191.9375 Z M 36.589844 191.9375 L 987.910156 191.9375 L 987.910156 192.554688 L 36.589844 192.554688 Z M 35.96875 192.554688 L 988.53125 192.554688 L 988.53125 193.152344 L 35.96875 193.152344 Z M 35.375 193.152344 L 989.125 193.152344 L 989.125 193.769531 L 35.375 193.769531 Z M 34.753906 193.769531 L 989.746094 193.769531 L 989.746094 194.367188 L 34.753906 194.367188 Z M 34.160156 194.367188 L 990.339844 194.367188 L 990.339844 194.988281 L 34.160156 194.988281 Z M 33.539062 194.988281 L 990.960938 194.988281 L 990.960938 195.605469 L 33.539062 195.605469 Z M 32.921875 195.605469 L 991.578125 195.605469 L 991.578125 196.203125 L 32.921875 196.203125 Z M 32.324219 196.203125 L 992.175781 196.203125 L 992.175781 196.820312 L 32.324219 196.820312 Z M 31.707031 196.820312 L 992.792969 196.820312 L 992.792969 197.417969 L 31.707031 197.417969 Z M 31.109375 197.417969 L 993.390625 197.417969 L 993.390625 198.035156 L 31.109375 198.035156 Z M 30.492188 198.035156 L 994.007812 198.035156 L 994.007812 198.65625 L 30.492188 198.65625 Z M 29.871094 198.65625 L 994.628906 198.65625 L 994.628906 199.253906 L 29.871094 199.253906 Z M 29.277344 199.253906 L 995.222656 199.253906 L 995.222656 200.46875 L 29.277344 200.46875 Z M 28.65625 200.46875 L 995.84375 200.46875 L 995.84375 201.085938 L 28.65625 201.085938 Z M 28.0625 201.085938 L 996.4375 201.085938 L 996.4375 201.707031 L 28.0625 201.707031 Z M 27.441406 201.707031 L 997.058594 201.707031 L 997.058594 202.921875 L 27.441406 202.921875 Z M 26.824219 202.921875 L 997.675781 202.921875 L 997.675781 203.519531 L 26.824219 203.519531 Z M 26.226562 203.519531 L 998.273438 203.519531 L 998.273438 204.136719 L 26.226562 204.136719 Z M 25.609375 204.136719 L 998.890625 204.136719 L 998.890625 204.757812 L 25.609375 204.757812 Z M 25.011719 204.757812 L 999.488281 204.757812 L 999.488281 205.972656 L 25.011719 205.972656 Z M 24.394531 205.972656 L 1000.105469 205.972656 L 1000.105469 206.570312 L 24.394531 206.570312 Z M 23.773438 206.570312 L 1000.726562 206.570312 L 1000.726562 207.1875 L 23.773438 207.1875 Z M 23.179688 207.1875 L 1001.320312 207.1875 L 1001.320312 208.402344 L 23.179688 208.402344 Z M 22.558594 208.402344 L 1001.941406 208.402344 L 1001.941406 209.023438 L 22.558594 209.023438 Z M 21.964844 209.023438 L 1002.535156 209.023438 L 1002.535156 209.617188 L 21.964844 209.617188 Z M 21.34375 209.617188 L 1003.15625 209.617188 L 1003.15625 210.859375 L 21.34375 210.859375 Z M 20.722656 210.859375 L 1003.777344 210.859375 L 1003.777344 212.074219 L 20.722656 212.074219 Z M 20.128906 212.074219 L 1004.371094 212.074219 L 1004.371094 212.667969 L 20.128906 212.667969 Z M 19.507812 212.667969 L 1004.992188 212.667969 L 1004.992188 213.910156 L 19.507812 213.910156 Z M 18.914062 213.910156 L 1005.585938 213.910156 L 1005.585938 215.125 L 18.914062 215.125 Z M 18.292969 215.125 L 1006.207031 215.125 L 1006.207031 216.339844 L 18.292969 216.339844 Z M 17.675781 216.339844 L 1006.824219 216.339844 L 1006.824219 216.960938 L 17.675781 216.960938 Z M 17.675781 216.960938 L 1007.421875 216.960938 L 1007.421875 217.554688 L 17.675781 217.554688 Z M 17.078125 217.554688 L 1007.421875 217.554688 L 1007.421875 218.175781 L 17.078125 218.175781 Z M 16.460938 218.175781 L 1008.039062 218.175781 L 1008.039062 219.390625 L 16.460938 219.390625 Z M 15.863281 219.390625 L 1008.636719 219.390625 L 1008.636719 220.605469 L 15.863281 220.605469 Z M 15.246094 220.605469 L 1009.253906 220.605469 L 1009.253906 221.820312 L 15.246094 221.820312 Z M 14.625 221.820312 L 1009.875 221.820312 L 1009.875 222.441406 L 14.625 222.441406 Z M 14.03125 222.441406 L 1010.46875 222.441406 L 1010.46875 223.65625 L 14.03125 223.65625 Z M 13.410156 223.65625 L 1011.089844 223.65625 L 1011.089844 225.492188 L 13.410156 225.492188 Z M 12.816406 225.492188 L 1011.683594 225.492188 L 1011.683594 226.707031 L 12.816406 226.707031 Z M 12.195312 226.707031 L 1012.304688 226.707031 L 1012.304688 227.921875 L 12.195312 227.921875 Z M 12.195312 227.921875 L 1012.921875 227.921875 L 1012.921875 228.542969 L 12.195312 228.542969 Z M 11.578125 228.542969 L 1012.921875 228.542969 L 1012.921875 229.757812 L 11.578125 229.757812 Z M 10.980469 229.757812 L 1013.519531 229.757812 L 1013.519531 230.972656 L 10.980469 230.972656 Z M 10.363281 230.972656 L 1014.136719 230.972656 L 1014.136719 232.808594 L 10.363281 232.808594 Z M 9.765625 232.808594 L 1014.734375 232.808594 L 1014.734375 234.023438 L 9.765625 234.023438 Z M 9.148438 234.023438 L 1015.351562 234.023438 L 1015.351562 235.855469 L 9.148438 235.855469 Z M 8.527344 235.855469 L 1015.972656 235.855469 L 1015.972656 237.074219 L 8.527344 237.074219 Z M 7.933594 237.074219 L 1016.566406 237.074219 L 1016.566406 238.90625 L 7.933594 238.90625 Z M 7.3125 238.90625 L 1017.1875 238.90625 L 1017.1875 240.742188 L 7.3125 240.742188 Z M 6.71875 240.742188 L 1017.78125 240.742188 L 1017.78125 243.171875 L 6.71875 243.171875 Z M 6.097656 243.171875 L 1018.402344 243.171875 L 1018.402344 245.007812 L 6.097656 245.007812 Z M 5.480469 245.007812 L 1019.019531 245.007812 L 1019.019531 247.464844 L 5.480469 247.464844 Z M 4.882812 247.464844 L 1019.617188 247.464844 L 1019.617188 249.273438 L 4.882812 249.273438 Z M 4.265625 249.273438 L 1020.234375 249.273438 L 1020.234375 251.730469 L 4.265625 251.730469 Z M 3.667969 251.730469 L 1020.832031 251.730469 L 1020.832031 254.160156 L 3.667969 254.160156 Z M 3.050781 254.160156 L 1021.449219 254.160156 L 1021.449219 257.828125 L 3.050781 257.828125 Z M 2.429688 257.828125 L 1022.070312 257.828125 L 1022.070312 261.476562 L 2.429688 261.476562 Z M 1.835938 261.476562 L 1022.664062 261.476562 L 1022.664062 265.144531 L 1.835938 265.144531 Z M 1.214844 265.144531 L 1023.285156 265.144531 L 1023.285156 268.816406 L 1.214844 268.816406 Z M 0.621094 268.816406 L 1023.878906 268.816406 L 1023.878906 274.917969 L 0.621094 274.917969 Z M 0 274.917969 L 1024 274.917969 L 1024 301.132812 L 0 301.132812 Z M 0.621094 301.132812 L 1023.878906 301.132812 L 1023.878906 307.230469 L 0.621094 307.230469 Z M 1.214844 307.230469 L 1023.878906 307.230469 L 1023.878906 307.851562 L 1.214844 307.851562 Z M 1.214844 307.851562 L 1023.285156 307.851562 L 1023.285156 310.902344 L 1.214844 310.902344 Z M 1.835938 310.902344 L 1023.285156 310.902344 L 1023.285156 311.523438 L 1.835938 311.523438 Z M 1.835938 311.523438 L 1022.664062 311.523438 L 1022.664062 314.570312 L 1.835938 314.570312 Z M 2.429688 314.570312 L 1022.664062 314.570312 L 1022.664062 315.167969 L 2.429688 315.167969 Z M 2.429688 315.167969 L 1022.070312 315.167969 L 1022.070312 318.21875 L 2.429688 318.21875 Z M 3.050781 318.21875 L 1022.070312 318.21875 L 1022.070312 318.839844 L 3.050781 318.839844 Z M 3.050781 318.839844 L 1021.449219 318.839844 L 1021.449219 322.484375 L 3.050781 322.484375 Z M 3.667969 322.484375 L 1020.832031 322.484375 L 1020.832031 324.320312 L 3.667969 324.320312 Z M 4.265625 324.320312 L 1020.234375 324.320312 L 1020.234375 326.773438 L 4.265625 326.773438 Z M 4.882812 326.773438 L 1019.617188 326.773438 L 1019.617188 328.585938 L 4.882812 328.585938 Z M 5.480469 328.585938 L 1019.019531 328.585938 L 1019.019531 331.039062 L 5.480469 331.039062 Z M 6.097656 331.039062 L 1018.402344 331.039062 L 1018.402344 332.875 L 6.097656 332.875 Z M 6.71875 332.875 L 1017.78125 332.875 L 1017.78125 335.304688 L 6.71875 335.304688 Z M 7.3125 335.304688 L 1017.1875 335.304688 L 1017.1875 337.140625 L 7.3125 337.140625 Z M 7.933594 337.140625 L 1016.566406 337.140625 L 1016.566406 338.976562 L 7.933594 338.976562 Z M 8.527344 338.976562 L 1015.972656 338.976562 L 1015.972656 340.785156 L 8.527344 340.785156 Z M 9.148438 340.785156 L 1015.351562 340.785156 L 1015.351562 342.027344 L 9.148438 342.027344 Z M 9.765625 342.027344 L 1014.734375 342.027344 L 1014.734375 343.835938 L 9.765625 343.835938 Z M 10.363281 343.835938 L 1014.136719 343.835938 L 1014.136719 345.078125 L 10.363281 345.078125 Z M 10.980469 345.078125 L 1013.519531 345.078125 L 1013.519531 346.292969 L 10.980469 346.292969 Z M 11.578125 346.292969 L 1012.921875 346.292969 L 1012.921875 348.125 L 11.578125 348.125 Z M 12.195312 348.125 L 1012.304688 348.125 L 1012.304688 349.34375 L 12.195312 349.34375 Z M 12.816406 349.34375 L 1011.683594 349.34375 L 1011.683594 351.175781 L 12.816406 351.175781 Z M 13.410156 351.175781 L 1011.089844 351.175781 L 1011.089844 352.390625 L 13.410156 352.390625 Z M 14.03125 352.390625 L 1010.46875 352.390625 L 1010.46875 353.609375 L 14.03125 353.609375 Z M 14.625 353.609375 L 1009.875 353.609375 L 1009.875 354.824219 L 14.625 354.824219 Z M 15.246094 354.824219 L 1009.253906 354.824219 L 1009.253906 356.039062 L 15.246094 356.039062 Z M 15.863281 356.039062 L 1008.636719 356.039062 L 1008.636719 356.660156 L 15.863281 356.660156 Z M 16.460938 356.660156 L 1008.039062 356.660156 L 1008.039062 357.875 L 16.460938 357.875 Z M 17.078125 357.875 L 1007.421875 357.875 L 1007.421875 359.089844 L 17.078125 359.089844 Z M 17.675781 359.089844 L 1006.824219 359.089844 L 1006.824219 360.328125 L 17.675781 360.328125 Z M 18.292969 360.328125 L 1006.207031 360.328125 L 1006.207031 360.925781 L 18.292969 360.925781 Z M 18.914062 360.925781 L 1005.585938 360.925781 L 1005.585938 362.140625 L 18.914062 362.140625 Z M 19.507812 362.140625 L 1004.992188 362.140625 L 1004.992188 363.378906 L 19.507812 363.378906 Z M 20.128906 363.378906 L 1004.371094 363.378906 L 1004.371094 364.59375 L 20.128906 364.59375 Z M 20.722656 364.59375 L 1003.777344 364.59375 L 1003.777344 365.191406 L 20.722656 365.191406 Z M 21.34375 365.191406 L 1003.15625 365.191406 L 1003.15625 366.429688 L 21.34375 366.429688 Z M 21.964844 366.429688 L 1002.535156 366.429688 L 1002.535156 367.023438 L 21.964844 367.023438 Z M 22.558594 367.023438 L 1001.941406 367.023438 L 1001.941406 368.242188 L 22.558594 368.242188 Z M 23.179688 368.242188 L 1001.320312 368.242188 L 1001.320312 368.859375 L 23.179688 368.859375 Z M 23.773438 368.859375 L 1000.726562 368.859375 L 1000.726562 369.480469 L 23.773438 369.480469 Z M 24.394531 369.480469 L 1000.105469 369.480469 L 1000.105469 370.695312 L 24.394531 370.695312 Z M 25.011719 370.695312 L 999.488281 370.695312 L 999.488281 371.289062 L 25.011719 371.289062 Z M 25.609375 371.289062 L 998.890625 371.289062 L 998.890625 371.910156 L 25.609375 371.910156 Z M 26.226562 371.910156 L 998.273438 371.910156 L 998.273438 372.53125 L 26.226562 372.53125 Z M 26.824219 372.53125 L 997.675781 372.53125 L 997.675781 373.746094 L 26.824219 373.746094 Z M 27.441406 373.746094 L 997.058594 373.746094 L 997.058594 374.339844 L 27.441406 374.339844 Z M 28.0625 374.339844 L 996.4375 374.339844 L 996.4375 374.960938 L 28.0625 374.960938 Z M 28.65625 374.960938 L 995.84375 374.960938 L 995.84375 376.175781 L 28.65625 376.175781 Z M 29.277344 376.175781 L 995.222656 376.175781 L 995.222656 376.796875 L 29.277344 376.796875 Z M 29.871094 376.796875 L 994.628906 376.796875 L 994.628906 377.390625 L 29.871094 377.390625 Z M 30.492188 377.390625 L 994.007812 377.390625 L 994.007812 378.011719 L 30.492188 378.011719 Z M 31.109375 378.011719 L 993.390625 378.011719 L 993.390625 378.628906 L 31.109375 378.628906 Z M 31.707031 378.628906 L 992.792969 378.628906 L 992.792969 379.226562 L 31.707031 379.226562 Z M 32.324219 379.226562 L 992.175781 379.226562 L 992.175781 379.847656 L 32.324219 379.847656 Z M 32.921875 379.847656 L 991.578125 379.847656 L 991.578125 380.441406 L 32.921875 380.441406 Z M 33.539062 380.441406 L 990.960938 380.441406 L 990.960938 381.0625 L 33.539062 381.0625 Z M 34.160156 381.0625 L 990.339844 381.0625 L 990.339844 381.679688 L 34.160156 381.679688 Z M 34.753906 381.679688 L 989.746094 381.679688 L 989.746094 382.277344 L 34.753906 382.277344 Z M 35.375 382.277344 L 989.125 382.277344 L 989.125 382.898438 L 35.375 382.898438 Z M 35.96875 382.898438 L 988.53125 382.898438 L 988.53125 383.492188 L 35.96875 383.492188 Z M 36.589844 383.492188 L 987.910156 383.492188 L 987.910156 384.113281 L 36.589844 384.113281 Z M 37.207031 384.113281 L 987.292969 384.113281 L 987.292969 384.730469 L 37.207031 384.730469 Z M 37.804688 384.730469 L 986.695312 384.730469 L 986.695312 385.328125 L 37.804688 385.328125 Z M 38.421875 385.328125 L 986.078125 385.328125 L 986.078125 385.945312 L 38.421875 385.945312 Z M 39.019531 385.945312 L 985.480469 385.945312 L 985.480469 386.542969 L 39.019531 386.542969 Z M 39.636719 386.542969 L 984.863281 386.542969 L 984.863281 387.164062 L 39.636719 387.164062 Z M 40.257812 387.164062 L 984.242188 387.164062 L 984.242188 387.78125 L 40.257812 387.78125 Z M 40.851562 387.78125 L 983.648438 387.78125 L 983.648438 388.378906 L 40.851562 388.378906 Z M 42.066406 388.378906 L 982.433594 388.378906 L 982.433594 388.996094 L 42.066406 388.996094 Z M 42.6875 388.996094 L 981.8125 388.996094 L 981.8125 389.59375 L 42.6875 389.59375 Z M 43.308594 389.59375 L 981.191406 389.59375 L 981.191406 390.210938 L 43.308594 390.210938 Z M 44.523438 390.210938 L 979.976562 390.210938 L 979.976562 390.832031 L 44.523438 390.832031 Z M 45.117188 390.832031 L 979.382812 390.832031 L 979.382812 391.429688 L 45.117188 391.429688 Z M 45.738281 391.429688 L 978.761719 391.429688 L 978.761719 392.046875 L 45.738281 392.046875 Z M 46.953125 392.046875 L 977.546875 392.046875 L 977.546875 392.644531 L 46.953125 392.644531 Z M 47.570312 392.644531 L 976.929688 392.644531 L 976.929688 393.261719 L 47.570312 393.261719 Z M 48.167969 393.261719 L 976.332031 393.261719 L 976.332031 393.882812 L 48.167969 393.882812 Z M 49.40625 393.882812 L 975.09375 393.882812 L 975.09375 394.480469 L 49.40625 394.480469 Z M 50.621094 394.480469 L 974.5 394.480469 L 974.5 395.097656 L 50.621094 395.097656 Z M 51.214844 395.097656 L 973.285156 395.097656 L 973.285156 395.695312 L 51.214844 395.695312 Z M 51.835938 395.695312 L 972.664062 395.695312 L 972.664062 396.933594 L 51.835938 396.933594 Z M 52.453125 396.933594 L 972.046875 396.933594 L 972.046875 398.148438 L 52.453125 398.148438 Z M 53.050781 398.148438 L 971.449219 398.148438 L 971.449219 399.363281 L 53.050781 399.363281 Z M 53.667969 399.363281 L 970.832031 399.363281 L 970.832031 400.578125 L 53.667969 400.578125 Z M 54.265625 400.578125 L 970.234375 400.578125 L 970.234375 401.792969 L 54.265625 401.792969 Z M 54.882812 401.792969 L 969.617188 401.792969 L 969.617188 403.035156 L 54.882812 403.035156 Z M 55.503906 403.035156 L 968.996094 403.035156 L 968.996094 404.25 L 55.503906 404.25 Z M 56.097656 404.25 L 968.402344 404.25 L 968.402344 405.464844 L 56.097656 405.464844 Z M 56.71875 405.464844 L 967.78125 405.464844 L 967.78125 406.085938 L 56.71875 406.085938 Z M 57.3125 406.085938 L 967.1875 406.085938 L 967.1875 406.679688 L 57.3125 406.679688 Z M 57.933594 406.679688 L 966.566406 406.679688 L 966.566406 407.894531 L 57.933594 407.894531 Z M 58.550781 407.894531 L 965.949219 407.894531 L 965.949219 408.515625 L 58.550781 408.515625 Z M 59.148438 408.515625 L 965.351562 408.515625 L 965.351562 409.136719 L 59.148438 409.136719 Z M 59.765625 409.136719 L 964.734375 409.136719 L 964.734375 410.351562 L 59.765625 410.351562 Z M 60.363281 410.351562 L 964.136719 410.351562 L 964.136719 410.945312 L 60.363281 410.945312 Z M 60.980469 410.945312 L 963.519531 410.945312 L 963.519531 411.566406 L 60.980469 411.566406 Z M 61.601562 411.566406 L 962.898438 411.566406 L 962.898438 412.183594 L 61.601562 412.183594 Z M 62.195312 412.183594 L 962.304688 412.183594 L 962.304688 412.78125 L 62.195312 412.78125 Z M 62.816406 412.78125 L 961.683594 412.78125 L 961.683594 413.402344 L 62.816406 413.402344 Z M 63.410156 413.402344 L 961.089844 413.402344 L 961.089844 413.996094 L 63.410156 413.996094 Z M 64.03125 413.996094 L 960.46875 413.996094 L 960.46875 414.617188 L 64.03125 414.617188 Z M 64.652344 414.617188 L 959.847656 414.617188 L 959.847656 415.234375 L 64.652344 415.234375 Z M 65.246094 415.234375 L 959.253906 415.234375 L 959.253906 415.832031 L 65.246094 415.832031 Z M 65.867188 415.832031 L 958.632812 415.832031 L 958.632812 416.449219 L 65.867188 416.449219 Z M 67.082031 416.449219 L 957.417969 416.449219 L 957.417969 417.046875 L 67.082031 417.046875 Z M 67.699219 417.046875 L 956.800781 417.046875 L 956.800781 417.667969 L 67.699219 417.667969 Z M 68.296875 417.667969 L 956.203125 417.667969 L 956.203125 418.285156 L 68.296875 418.285156 Z M 69.511719 418.285156 L 954.988281 418.285156 L 954.988281 418.882812 L 69.511719 418.882812 Z M 70.128906 418.882812 L 954.371094 418.882812 L 954.371094 419.5 L 70.128906 419.5 Z M 71.34375 419.5 L 953.15625 419.5 L 953.15625 420.097656 L 71.34375 420.097656 Z M 72.558594 420.097656 L 951.941406 420.097656 L 951.941406 420.71875 L 72.558594 420.71875 Z M 73.179688 420.71875 L 951.320312 420.71875 L 951.320312 421.335938 L 73.179688 421.335938 Z M 74.394531 421.335938 L 950.105469 421.335938 L 950.105469 421.933594 L 74.394531 421.933594 Z M 76.226562 421.933594 L 948.273438 421.933594 L 948.273438 422.550781 L 76.226562 422.550781 Z M 77.441406 422.550781 L 947.058594 422.550781 L 947.058594 423.148438 L 77.441406 423.148438 Z M 78.65625 423.148438 L 945.84375 423.148438 L 945.84375 423.765625 L 78.65625 423.765625 Z M 80.492188 423.765625 L 944.007812 423.765625 L 944.007812 424.386719 L 80.492188 424.386719 Z M 82.324219 424.386719 L 942.175781 424.386719 L 942.175781 424.984375 L 82.324219 424.984375 Z M 84.753906 424.984375 L 939.746094 424.984375 L 939.746094 425.601562 L 84.753906 425.601562 Z M 86.589844 425.601562 L 937.910156 425.601562 L 937.910156 426.199219 L 86.589844 426.199219 Z M 87.210938 426.199219 L 937.289062 426.199219 L 937.289062 426.816406 L 87.210938 426.816406 Z M 87.804688 426.816406 L 936.695312 426.816406 L 936.695312 427.4375 L 87.804688 427.4375 Z M 88.425781 427.4375 L 936.074219 427.4375 L 936.074219 428.03125 L 88.425781 428.03125 Z M 89.042969 428.03125 L 935.457031 428.03125 L 935.457031 428.652344 L 89.042969 428.652344 Z M 89.640625 428.652344 L 934.859375 428.652344 L 934.859375 429.867188 L 89.640625 429.867188 Z M 90.257812 429.867188 L 934.242188 429.867188 L 934.242188 430.488281 L 90.257812 430.488281 Z M 90.855469 430.488281 L 933.644531 430.488281 L 933.644531 431.082031 L 90.855469 431.082031 Z M 91.472656 431.082031 L 933.027344 431.082031 L 933.027344 431.703125 L 91.472656 431.703125 Z M 92.09375 431.703125 L 932.40625 431.703125 L 932.40625 432.300781 L 92.09375 432.300781 Z M 92.6875 432.300781 L 931.8125 432.300781 L 931.8125 432.917969 L 92.6875 432.917969 Z M 93.308594 432.917969 L 931.191406 432.917969 L 931.191406 433.539062 L 93.308594 433.539062 Z M 93.902344 433.539062 L 930.597656 433.539062 L 930.597656 434.132812 L 93.902344 434.132812 Z M 95.140625 434.132812 L 929.359375 434.132812 L 929.359375 434.753906 L 95.140625 434.753906 Z M 95.738281 434.753906 L 928.761719 434.753906 L 928.761719 435.347656 L 95.738281 435.347656 Z M 96.355469 435.347656 L 928.144531 435.347656 L 928.144531 435.96875 L 96.355469 435.96875 Z M 97.570312 435.96875 L 926.929688 435.96875 L 926.929688 436.589844 L 97.570312 436.589844 Z M 98.191406 436.589844 L 926.308594 436.589844 L 926.308594 437.183594 L 98.191406 437.183594 Z M 98.785156 437.183594 L 925.714844 437.183594 L 925.714844 437.804688 L 98.785156 437.804688 Z M 100 437.804688 L 924.5 437.804688 L 924.5 438.398438 L 100 438.398438 Z M 100.621094 438.398438 L 923.878906 438.398438 L 923.878906 439.019531 L 100.621094 439.019531 Z M 101.238281 439.019531 L 923.261719 439.019531 L 923.261719 439.640625 L 101.238281 439.640625 Z M 102.453125 439.640625 L 922.046875 439.640625 L 922.046875 440.234375 L 102.453125 440.234375 Z M 103.667969 440.234375 L 920.832031 440.234375 L 920.832031 440.855469 L 103.667969 440.855469 Z M 104.882812 440.855469 L 919.617188 440.855469 L 919.617188 441.449219 L 104.882812 441.449219 Z M 106.097656 441.449219 L 918.402344 441.449219 L 918.402344 442.070312 L 106.097656 442.070312 Z M 106.71875 442.070312 L 917.78125 442.070312 L 917.78125 442.6875 L 106.71875 442.6875 Z M 107.933594 442.6875 L 916.566406 442.6875 L 916.566406 443.285156 L 107.933594 443.285156 Z M 109.148438 443.285156 L 915.351562 443.285156 L 915.351562 443.90625 L 109.148438 443.90625 Z M 110.386719 443.90625 L 914.113281 443.90625 L 914.113281 444.5 L 110.386719 444.5 Z M 111.601562 444.5 L 912.898438 444.5 L 912.898438 445.121094 L 111.601562 445.121094 Z M 112.816406 445.121094 L 911.683594 445.121094 L 911.683594 445.738281 L 112.816406 445.738281 Z M 114.652344 445.738281 L 909.847656 445.738281 L 909.847656 446.335938 L 114.652344 446.335938 Z M 116.484375 446.335938 L 908.015625 446.335938 L 908.015625 446.957031 L 116.484375 446.957031 Z M 118.296875 446.957031 L 906.203125 446.957031 L 906.203125 447.550781 L 118.296875 447.550781 Z M 120.75 447.550781 L 903.75 447.550781 L 903.75 448.171875 L 120.75 448.171875 Z M 122.582031 448.171875 L 901.917969 448.171875 L 901.917969 448.789062 L 122.582031 448.789062 Z M 124.394531 448.789062 L 900.105469 448.789062 L 900.105469 449.386719 L 124.394531 449.386719 Z M 128.0625 449.386719 L 896.4375 449.386719 L 896.4375 450.003906 L 128.0625 450.003906 Z M 132.945312 450.003906 L 891.554688 450.003906 L 891.554688 450.269531 L 132.945312 450.269531 Z M 132.945312 450.003906 " clip-rule="nonzero"/></clipPath><clipPath id="801b5223bc"><path d="M 138.617188 450.269531 C 120.867188 450.269531 104.195312 443.355469 91.640625 430.796875 C 89.925781 429.105469 88.328125 427.292969 86.804688 425.363281 C 77.800781 423.71875 69.511719 419.382812 62.910156 412.757812 C 57.910156 407.753906 54.191406 401.792969 51.976562 395.289062 C 20.75 377.105469 0 335.589844 0 288.121094 C 0 240.648438 20.75 199.132812 51.976562 180.949219 C 54.191406 174.445312 57.910156 168.460938 62.933594 163.457031 C 69.511719 156.855469 77.800781 152.519531 86.804688 150.851562 C 88.304688 148.945312 89.925781 147.132812 91.640625 145.417969 C 104.195312 132.882812 120.867188 125.972656 138.617188 125.972656 L 885.882812 125.972656 C 903.632812 125.972656 920.304688 132.882812 932.859375 145.417969 C 934.574219 147.109375 936.195312 148.945312 937.695312 150.851562 C 946.699219 152.519531 955.011719 156.855469 961.613281 163.480469 C 966.613281 168.460938 970.308594 174.445312 972.523438 180.949219 C 1003.777344 199.109375 1024.5 240.648438 1024.5 288.121094 C 1024.5 335.589844 1003.75 377.105469 972.523438 395.289062 C 970.28125 401.792969 966.589844 407.777344 961.566406 412.78125 C 954.988281 419.382812 946.699219 423.71875 937.695312 425.363281 C 936.195312 427.269531 934.597656 429.082031 932.882812 430.796875 C 920.304688 443.355469 903.632812 450.269531 885.882812 450.269531 Z M 138.617188 450.269531 " clip-rule="nonzero"/></clipPath><linearGradient x1="0" gradientTransform="matrix(1024.5, 0, 0, 1024.937776, 0, 288.107568)" y1="0" x2="0.999512" gradientUnits="userSpaceOnUse" y2="0" id="580a6d7f65"><stop stop-opacity="1" stop-color="rgb(64.299011%, 40.79895%, 15.299988%)" offset="0"/><stop stop-opacity="1" stop-color="rgb(64.489746%, 40.79895%, 15.109253%)" offset="0.015625"/><stop stop-opacity="1" stop-color="rgb(64.889526%, 40.820312%, 14.907837%)" offset="0.0195313"/><stop stop-opacity="1" stop-color="rgb(65.098572%, 40.841675%, 14.898682%)" offset="0.0234375"/><stop stop-opacity="1" stop-color="rgb(65.110779%, 41.020203%, 14.898682%)" offset="0.03125"/><stop stop-opacity="1" stop-color="rgb(65.312195%, 41.400146%, 14.898682%)" offset="0.0351562"/><stop stop-opacity="1" stop-color="rgb(65.50293%, 41.603088%, 14.898682%)" offset="0.0390625"/><stop stop-opacity="1" stop-color="rgb(65.893555%, 41.993713%, 14.898682%)" offset="0.0429688"/><stop stop-opacity="1" stop-color="rgb(66.28418%, 42.384338%, 14.898682%)" offset="0.046875"/><stop stop-opacity="1" stop-color="rgb(66.474915%, 42.724609%, 14.698792%)" offset="0.0507812"/><stop stop-opacity="1" stop-color="rgb(66.665649%, 43.06488%, 14.498901%)" offset="0.0546875"/><stop stop-opacity="1" stop-color="rgb(67.056274%, 43.455505%, 14.324951%)" offset="0.0585938"/><stop stop-opacity="1" stop-color="rgb(67.446899%, 43.84613%, 14.152527%)" offset="0.0625"/><stop stop-opacity="1" stop-color="rgb(68.035889%, 44.285583%, 14.111328%)" offset="0.0664062"/><stop stop-opacity="1" stop-color="rgb(68.626404%, 44.726562%, 14.071655%)" offset="0.0703125"/><stop stop-opacity="1" stop-color="rgb(69.017029%, 45.317078%, 13.890076%)" offset="0.0742188"/><stop stop-opacity="1" stop-color="rgb(69.407654%, 45.907593%, 13.708496%)" offset="0.078125"/><stop stop-opacity="1" stop-color="rgb(69.992065%, 46.492004%, 14.097595%)" offset="0.0820313"/><stop stop-opacity="1" stop-color="rgb(70.578003%, 47.077942%, 14.48822%)" offset="0.0859375"/><stop stop-opacity="1" stop-color="rgb(71.159363%, 47.622681%, 14.678955%)" offset="0.0898438"/><stop stop-opacity="1" stop-color="rgb(71.740723%, 48.168945%, 14.86969%)" offset="0.09375"/><stop stop-opacity="1" stop-color="rgb(72.276306%, 48.934937%, 15.084839%)" offset="0.0976562"/><stop stop-opacity="1" stop-color="rgb(72.813416%, 49.702454%, 15.299988%)" offset="0.101562"/><stop stop-opacity="1" stop-color="rgb(73.487854%, 50.582886%, 15.731812%)" offset="0.105469"/><stop stop-opacity="1" stop-color="rgb(74.163818%, 51.463318%, 16.163635%)" offset="0.109375"/><stop stop-opacity="1" stop-color="rgb(74.943542%, 52.394104%, 16.741943%)" offset="0.113281"/><stop stop-opacity="1" stop-color="rgb(75.724792%, 53.32489%, 17.321777%)" offset="0.117188"/><stop stop-opacity="1" stop-color="rgb(76.652527%, 54.302979%, 18.054199%)" offset="0.121094"/><stop stop-opacity="1" stop-color="rgb(77.581787%, 55.281067%, 18.786621%)" offset="0.125"/><stop stop-opacity="1" stop-color="rgb(78.552246%, 56.265259%, 19.180298%)" offset="0.128906"/><stop stop-opacity="1" stop-color="rgb(79.524231%, 57.249451%, 19.573975%)" offset="0.132812"/><stop stop-opacity="1" stop-color="rgb(80.317688%, 58.357239%, 20.16449%)" offset="0.136719"/><stop stop-opacity="1" stop-color="rgb(81.111145%, 59.466553%, 20.755005%)" offset="0.140625"/><stop stop-opacity="1" stop-color="rgb(82.159424%, 60.600281%, 21.194458%)" offset="0.144531"/><stop stop-opacity="1" stop-color="rgb(83.209229%, 61.735535%, 21.635437%)" offset="0.148438"/><stop stop-opacity="1" stop-color="rgb(84.379578%, 63.052368%, 22.175598%)" offset="0.152344"/><stop stop-opacity="1" stop-color="rgb(85.551453%, 64.369202%, 22.717285%)" offset="0.15625"/><stop stop-opacity="1" stop-color="rgb(86.672974%, 65.930176%, 23.306274%)" offset="0.160156"/><stop stop-opacity="1" stop-color="rgb(87.794495%, 67.492676%, 23.895264%)" offset="0.164063"/><stop stop-opacity="1" stop-color="rgb(89.164734%, 69.003296%, 24.476624%)" offset="0.167969"/><stop stop-opacity="1" stop-color="rgb(90.536499%, 70.515442%, 25.057983%)" offset="0.171875"/><stop stop-opacity="1" stop-color="rgb(91.662598%, 72.032166%, 25.837708%)" offset="0.175781"/><stop stop-opacity="1" stop-color="rgb(92.788696%, 73.548889%, 26.618958%)" offset="0.179688"/><stop stop-opacity="1" stop-color="rgb(94.325256%, 75.276184%, 27.357483%)" offset="0.183594"/><stop stop-opacity="1" stop-color="rgb(95.863342%, 77.003479%, 28.096008%)" offset="0.1875"/><stop stop-opacity="1" stop-color="rgb(96.380615%, 77.500916%, 28.347778%)" offset="0.191406"/><stop stop-opacity="1" stop-color="rgb(96.899414%, 77.999878%, 28.599548%)" offset="0.195312"/><stop stop-opacity="1" stop-color="rgb(96.897888%, 77.998352%, 28.399658%)" offset="0.199219"/><stop stop-opacity="1" stop-color="rgb(96.896362%, 77.996826%, 28.199768%)" offset="0.203125"/><stop stop-opacity="1" stop-color="rgb(96.505737%, 77.653503%, 28.199768%)" offset="0.207031"/><stop stop-opacity="1" stop-color="rgb(96.115112%, 77.311707%, 28.199768%)" offset="0.210937"/><stop stop-opacity="1" stop-color="rgb(95.724487%, 76.922607%, 28.016663%)" offset="0.214844"/><stop stop-opacity="1" stop-color="rgb(95.335388%, 76.535034%, 27.835083%)" offset="0.21875"/><stop stop-opacity="1" stop-color="rgb(95.117188%, 76.144409%, 27.816772%)" offset="0.222656"/><stop stop-opacity="1" stop-color="rgb(94.898987%, 75.753784%, 27.799988%)" offset="0.226562"/><stop stop-opacity="1" stop-color="rgb(94.285583%, 75.112915%, 27.436829%)" offset="0.230469"/><stop stop-opacity="1" stop-color="rgb(93.673706%, 74.473572%, 27.073669%)" offset="0.234375"/><stop stop-opacity="1" stop-color="rgb(93.083191%, 73.883057%, 26.882935%)" offset="0.238281"/><stop stop-opacity="1" stop-color="rgb(92.494202%, 73.292542%, 26.6922%)" offset="0.242188"/><stop stop-opacity="1" stop-color="rgb(91.958618%, 72.755432%, 26.301575%)" offset="0.246094"/><stop stop-opacity="1" stop-color="rgb(91.423035%, 72.219849%, 25.91095%)" offset="0.25"/><stop stop-opacity="1" stop-color="rgb(90.841675%, 71.240234%, 25.520325%)" offset="0.253906"/><stop stop-opacity="1" stop-color="rgb(90.261841%, 70.262146%, 25.131226%)" offset="0.257812"/><stop stop-opacity="1" stop-color="rgb(89.656067%, 69.30542%, 24.740601%)" offset="0.261719"/><stop stop-opacity="1" stop-color="rgb(89.050293%, 68.35022%, 24.349976%)" offset="0.265625"/><stop stop-opacity="1" stop-color="rgb(87.843323%, 67.094421%, 23.709106%)" offset="0.269531"/><stop stop-opacity="1" stop-color="rgb(86.637878%, 65.838623%, 23.068237%)" offset="0.273438"/><stop stop-opacity="1" stop-color="rgb(85.856628%, 64.851379%, 22.727966%)" offset="0.277344"/><stop stop-opacity="1" stop-color="rgb(85.076904%, 63.865662%, 22.387695%)" offset="0.28125"/><stop stop-opacity="1" stop-color="rgb(84.098816%, 62.742615%, 21.99707%)" offset="0.285156"/><stop stop-opacity="1" stop-color="rgb(83.122253%, 61.621094%, 21.606445%)" offset="0.289062"/><stop stop-opacity="1" stop-color="rgb(82.18689%, 60.450745%, 21.21582%)" offset="0.292969"/><stop stop-opacity="1" stop-color="rgb(81.253052%, 59.280396%, 20.826721%)" offset="0.296875"/><stop stop-opacity="1" stop-color="rgb(80.09491%, 57.975769%, 20.236206%)" offset="0.300781"/><stop stop-opacity="1" stop-color="rgb(78.938293%, 56.672668%, 19.645691%)" offset="0.304688"/><stop stop-opacity="1" stop-color="rgb(77.641296%, 55.284119%, 18.887329%)" offset="0.308594"/><stop stop-opacity="1" stop-color="rgb(76.344299%, 53.895569%, 18.128967%)" offset="0.3125"/><stop stop-opacity="1" stop-color="rgb(74.992371%, 52.415466%, 17.097473%)" offset="0.316406"/><stop stop-opacity="1" stop-color="rgb(73.640442%, 50.93689%, 16.067505%)" offset="0.320313"/><stop stop-opacity="1" stop-color="rgb(72.325134%, 49.37439%, 15.286255%)" offset="0.324219"/><stop stop-opacity="1" stop-color="rgb(71.009827%, 47.813416%, 14.506531%)" offset="0.328125"/><stop stop-opacity="1" stop-color="rgb(69.648743%, 46.30127%, 14.31427%)" offset="0.332031"/><stop stop-opacity="1" stop-color="rgb(68.289185%, 44.789124%, 14.122009%)" offset="0.335938"/><stop stop-opacity="1" stop-color="rgb(66.777039%, 43.07251%, 14.489746%)" offset="0.339844"/><stop stop-opacity="1" stop-color="rgb(65.266418%, 41.355896%, 14.857483%)" offset="0.34375"/><stop stop-opacity="1" stop-color="rgb(64.273071%, 40.538025%, 15.048218%)" offset="0.347656"/><stop stop-opacity="1" stop-color="rgb(63.28125%, 39.72168%, 15.238953%)" offset="0.351563"/><stop stop-opacity="1" stop-color="rgb(61.810303%, 38.832092%, 15.46936%)" offset="0.355469"/><stop stop-opacity="1" stop-color="rgb(60.339355%, 37.944031%, 15.699768%)" offset="0.359375"/><stop stop-opacity="1" stop-color="rgb(59.16748%, 37.019348%, 15.699768%)" offset="0.363281"/><stop stop-opacity="1" stop-color="rgb(57.995605%, 36.096191%, 15.699768%)" offset="0.367188"/><stop stop-opacity="1" stop-color="rgb(56.092834%, 34.724426%, 15.699768%)" offset="0.371094"/><stop stop-opacity="1" stop-color="rgb(54.190063%, 33.354187%, 15.699768%)" offset="0.375"/><stop stop-opacity="1" stop-color="rgb(52.468872%, 32.232666%, 15.499878%)" offset="0.378906"/><stop stop-opacity="1" stop-color="rgb(50.749207%, 31.111145%, 15.299988%)" offset="0.382812"/><stop stop-opacity="1" stop-color="rgb(48.858643%, 29.73938%, 15.098572%)" offset="0.386719"/><stop stop-opacity="1" stop-color="rgb(46.968079%, 28.369141%, 14.898682%)" offset="0.390625"/><stop stop-opacity="1" stop-color="rgb(44.975281%, 26.696777%, 14.486694%)" offset="0.394531"/><stop stop-opacity="1" stop-color="rgb(42.984009%, 25.02594%, 14.074707%)" offset="0.398437"/><stop stop-opacity="1" stop-color="rgb(41.078186%, 23.852539%, 13.68103%)" offset="0.402344"/><stop stop-opacity="1" stop-color="rgb(39.173889%, 22.679138%, 13.288879%)" offset="0.40625"/><stop stop-opacity="1" stop-color="rgb(37.271118%, 21.166992%, 12.748718%)" offset="0.410156"/><stop stop-opacity="1" stop-color="rgb(35.368347%, 19.654846%, 12.210083%)" offset="0.414062"/><stop stop-opacity="1" stop-color="rgb(33.462524%, 18.138123%, 11.621094%)" offset="0.417969"/><stop stop-opacity="1" stop-color="rgb(31.556702%, 16.622925%, 11.032104%)" offset="0.421875"/><stop stop-opacity="1" stop-color="rgb(29.478455%, 15.264893%, 10.441589%)" offset="0.425781"/><stop stop-opacity="1" stop-color="rgb(27.400208%, 13.908386%, 9.851074%)" offset="0.429687"/><stop stop-opacity="1" stop-color="rgb(27.084351%, 13.639832%, 9.625244%)" offset="0.433594"/><stop stop-opacity="1" stop-color="rgb(26.77002%, 13.371277%, 9.399414%)" offset="0.4375"/><stop stop-opacity="1" stop-color="rgb(27.293396%, 13.739014%, 9.599304%)" offset="0.441406"/><stop stop-opacity="1" stop-color="rgb(27.818298%, 14.108276%, 9.799194%)" offset="0.445312"/><stop stop-opacity="1" stop-color="rgb(28.404236%, 14.498901%, 9.994507%)" offset="0.449219"/><stop stop-opacity="1" stop-color="rgb(28.990173%, 14.889526%, 10.189819%)" offset="0.453125"/><stop stop-opacity="1" stop-color="rgb(29.56543%, 15.280151%, 10.379028%)" offset="0.457031"/><stop stop-opacity="1" stop-color="rgb(30.142212%, 15.670776%, 10.569763%)" offset="0.460938"/><stop stop-opacity="1" stop-color="rgb(30.54657%, 16.061401%, 10.760498%)" offset="0.464844"/><stop stop-opacity="1" stop-color="rgb(30.950928%, 16.452026%, 10.951233%)" offset="0.46875"/><stop stop-opacity="1" stop-color="rgb(31.666565%, 16.841125%, 10.974121%)" offset="0.472656"/><stop stop-opacity="1" stop-color="rgb(32.382202%, 17.23175%, 10.998535%)" offset="0.476562"/><stop stop-opacity="1" stop-color="rgb(32.853699%, 17.622375%, 11.206055%)" offset="0.480469"/><stop stop-opacity="1" stop-color="rgb(33.326721%, 18.013%, 11.413574%)" offset="0.484375"/><stop stop-opacity="1" stop-color="rgb(33.909607%, 18.403625%, 11.605835%)" offset="0.488281"/><stop stop-opacity="1" stop-color="rgb(34.494019%, 18.79425%, 11.799622%)" offset="0.492188"/><stop stop-opacity="1" stop-color="rgb(35.084534%, 19.384766%, 11.999512%)" offset="0.496094"/><stop stop-opacity="1" stop-color="rgb(35.675049%, 19.975281%, 12.199402%)" offset="0.5"/><stop stop-opacity="1" stop-color="rgb(36.265564%, 20.36438%, 12.332153%)" offset="0.503906"/><stop stop-opacity="1" stop-color="rgb(36.856079%, 20.755005%, 12.466431%)" offset="0.507812"/><stop stop-opacity="1" stop-color="rgb(37.39624%, 21.14563%, 12.651062%)" offset="0.511719"/><stop stop-opacity="1" stop-color="rgb(37.936401%, 21.536255%, 12.837219%)" offset="0.515625"/><stop stop-opacity="1" stop-color="rgb(38.577271%, 21.983337%, 12.876892%)" offset="0.519531"/><stop stop-opacity="1" stop-color="rgb(39.21814%, 22.43042%, 12.918091%)" offset="0.523438"/><stop stop-opacity="1" stop-color="rgb(39.807129%, 22.964478%, 13.108826%)" offset="0.527344"/><stop stop-opacity="1" stop-color="rgb(40.397644%, 23.498535%, 13.299561%)" offset="0.53125"/><stop stop-opacity="1" stop-color="rgb(40.788269%, 23.687744%, 13.48877%)" offset="0.535156"/><stop stop-opacity="1" stop-color="rgb(41.178894%, 23.878479%, 13.679504%)" offset="0.539062"/><stop stop-opacity="1" stop-color="rgb(41.569519%, 24.269104%, 13.68866%)" offset="0.542969"/><stop stop-opacity="1" stop-color="rgb(41.960144%, 24.659729%, 13.699341%)" offset="0.546875"/><stop stop-opacity="1" stop-color="rgb(42.671204%, 25.050354%, 13.899231%)" offset="0.550781"/><stop stop-opacity="1" stop-color="rgb(43.382263%, 25.440979%, 14.099121%)" offset="0.554688"/><stop stop-opacity="1" stop-color="rgb(43.80188%, 25.831604%, 14.259338%)" offset="0.558594"/><stop stop-opacity="1" stop-color="rgb(44.221497%, 26.222229%, 14.421082%)" offset="0.5625"/><stop stop-opacity="1" stop-color="rgb(44.863892%, 26.663208%, 14.459229%)" offset="0.566406"/><stop stop-opacity="1" stop-color="rgb(45.506287%, 27.105713%, 14.498901%)" offset="0.570312"/><stop stop-opacity="1" stop-color="rgb(46.095276%, 27.644348%, 14.691162%)" offset="0.574219"/><stop stop-opacity="1" stop-color="rgb(46.684265%, 28.182983%, 14.883423%)" offset="0.578125"/><stop stop-opacity="1" stop-color="rgb(47.229004%, 28.573608%, 14.891052%)" offset="0.582031"/><stop stop-opacity="1" stop-color="rgb(47.773743%, 28.964233%, 14.898682%)" offset="0.585938"/><stop stop-opacity="1" stop-color="rgb(48.35968%, 29.354858%, 14.898682%)" offset="0.589844"/><stop stop-opacity="1" stop-color="rgb(48.945618%, 29.745483%, 14.898682%)" offset="0.59375"/><stop stop-opacity="1" stop-color="rgb(49.699402%, 30.299377%, 15.061951%)" offset="0.597656"/><stop stop-opacity="1" stop-color="rgb(50.453186%, 30.853271%, 15.226746%)" offset="0.601562"/><stop stop-opacity="1" stop-color="rgb(51.12915%, 31.129456%, 15.263367%)" offset="0.605469"/><stop stop-opacity="1" stop-color="rgb(51.806641%, 31.407166%, 15.299988%)" offset="0.609375"/><stop stop-opacity="1" stop-color="rgb(52.148438%, 31.942749%, 15.299988%)" offset="0.613281"/><stop stop-opacity="1" stop-color="rgb(52.490234%, 32.479858%, 15.299988%)" offset="0.617188"/><stop stop-opacity="1" stop-color="rgb(53.263855%, 32.873535%, 15.299988%)" offset="0.621094"/><stop stop-opacity="1" stop-color="rgb(54.039001%, 33.268738%, 15.299988%)" offset="0.625"/><stop stop-opacity="1" stop-color="rgb(54.618835%, 33.659363%, 15.499878%)" offset="0.628906"/><stop stop-opacity="1" stop-color="rgb(55.200195%, 34.049988%, 15.699768%)" offset="0.632813"/><stop stop-opacity="1" stop-color="rgb(55.780029%, 34.440613%, 15.699768%)" offset="0.636719"/><stop stop-opacity="1" stop-color="rgb(56.361389%, 34.831238%, 15.699768%)" offset="0.640625"/><stop stop-opacity="1" stop-color="rgb(56.991577%, 35.276794%, 15.699768%)" offset="0.644531"/><stop stop-opacity="1" stop-color="rgb(57.623291%, 35.723877%, 15.699768%)" offset="0.648438"/><stop stop-opacity="1" stop-color="rgb(58.404541%, 36.308289%, 15.699768%)" offset="0.652344"/><stop stop-opacity="1" stop-color="rgb(59.185791%, 36.8927%, 15.699768%)" offset="0.65625"/><stop stop-opacity="1" stop-color="rgb(59.579468%, 37.236023%, 15.699768%)" offset="0.660156"/><stop stop-opacity="1" stop-color="rgb(59.973145%, 37.579346%, 15.699768%)" offset="0.664063"/><stop stop-opacity="1" stop-color="rgb(60.36377%, 37.966919%, 15.699768%)" offset="0.667969"/><stop stop-opacity="1" stop-color="rgb(60.754395%, 38.354492%, 15.699768%)" offset="0.671875"/><stop stop-opacity="1" stop-color="rgb(61.34491%, 38.575745%, 15.499878%)" offset="0.675781"/><stop stop-opacity="1" stop-color="rgb(61.935425%, 38.798523%, 15.299988%)" offset="0.679688"/><stop stop-opacity="1" stop-color="rgb(62.475586%, 39.157104%, 15.299988%)" offset="0.683594"/><stop stop-opacity="1" stop-color="rgb(63.015747%, 39.515686%, 15.299988%)" offset="0.6875"/><stop stop-opacity="1" stop-color="rgb(63.4552%, 39.955139%, 15.299988%)" offset="0.691406"/><stop stop-opacity="1" stop-color="rgb(63.896179%, 40.396118%, 15.299988%)" offset="0.695313"/><stop stop-opacity="1" stop-color="rgb(64.486694%, 40.786743%, 15.098572%)" offset="0.699219"/><stop stop-opacity="1" stop-color="rgb(65.077209%, 41.177368%, 14.898682%)" offset="0.703125"/><stop stop-opacity="1" stop-color="rgb(65.846252%, 42.102051%, 14.698792%)" offset="0.707031"/><stop stop-opacity="1" stop-color="rgb(66.616821%, 43.028259%, 14.498901%)" offset="0.710938"/><stop stop-opacity="1" stop-color="rgb(67.524719%, 43.634033%, 14.299011%)" offset="0.714844"/><stop stop-opacity="1" stop-color="rgb(68.434143%, 44.239807%, 14.099121%)" offset="0.71875"/><stop stop-opacity="1" stop-color="rgb(69.036865%, 45.150757%, 13.899231%)" offset="0.722656"/><stop stop-opacity="1" stop-color="rgb(69.641113%, 46.061707%, 13.699341%)" offset="0.726563"/><stop stop-opacity="1" stop-color="rgb(70.320129%, 46.931458%, 14.099121%)" offset="0.730469"/><stop stop-opacity="1" stop-color="rgb(71.000671%, 47.801208%, 14.500427%)" offset="0.734375"/><stop stop-opacity="1" stop-color="rgb(71.582031%, 48.382568%, 14.891052%)" offset="0.738281"/><stop stop-opacity="1" stop-color="rgb(72.164917%, 48.963928%, 15.281677%)" offset="0.742188"/><stop stop-opacity="1" stop-color="rgb(72.712708%, 49.745178%, 15.472412%)" offset="0.746094"/><stop stop-opacity="1" stop-color="rgb(73.262024%, 50.526428%, 15.663147%)" offset="0.75"/><stop stop-opacity="1" stop-color="rgb(74.024963%, 51.306152%, 16.22467%)" offset="0.753906"/><stop stop-opacity="1" stop-color="rgb(74.787903%, 52.087402%, 16.78772%)" offset="0.757812"/><stop stop-opacity="1" stop-color="rgb(75.405884%, 52.818298%, 17.164612%)" offset="0.761719"/><stop stop-opacity="1" stop-color="rgb(76.023865%, 53.549194%, 17.54303%)" offset="0.765625"/><stop stop-opacity="1" stop-color="rgb(77.017212%, 54.629517%, 18.373108%)" offset="0.769531"/><stop stop-opacity="1" stop-color="rgb(78.010559%, 55.711365%, 19.204712%)" offset="0.773437"/><stop stop-opacity="1" stop-color="rgb(78.791809%, 56.491089%, 19.40155%)" offset="0.777344"/><stop stop-opacity="1" stop-color="rgb(79.573059%, 57.272339%, 19.599915%)" offset="0.78125"/><stop stop-opacity="1" stop-color="rgb(80.152893%, 58.003235%, 19.98291%)" offset="0.785156"/><stop stop-opacity="1" stop-color="rgb(80.734253%, 58.734131%, 20.367432%)" offset="0.789062"/><stop stop-opacity="1" stop-color="rgb(81.340027%, 59.515381%, 20.756531%)" offset="0.792969"/><stop stop-opacity="1" stop-color="rgb(81.947327%, 60.296631%, 21.147156%)" offset="0.796875"/><stop stop-opacity="1" stop-color="rgb(82.487488%, 61.076355%, 21.372986%)" offset="0.800781"/><stop stop-opacity="1" stop-color="rgb(83.029175%, 61.857605%, 21.598816%)" offset="0.804687"/><stop stop-opacity="1" stop-color="rgb(83.773804%, 62.588501%, 21.954346%)" offset="0.808594"/><stop stop-opacity="1" stop-color="rgb(84.519958%, 63.319397%, 22.309875%)" offset="0.8125"/><stop stop-opacity="1" stop-color="rgb(85.400391%, 64.199829%, 22.50061%)" offset="0.816406"/><stop stop-opacity="1" stop-color="rgb(86.282349%, 65.081787%, 22.692871%)" offset="0.820312"/><stop stop-opacity="1" stop-color="rgb(86.875916%, 66.062927%, 23.08197%)" offset="0.824219"/><stop stop-opacity="1" stop-color="rgb(87.471008%, 67.044067%, 23.471069%)" offset="0.828125"/><stop stop-opacity="1" stop-color="rgb(88.388062%, 67.974854%, 23.861694%)" offset="0.832031"/><stop stop-opacity="1" stop-color="rgb(89.305115%, 68.90564%, 24.252319%)" offset="0.835937"/><stop stop-opacity="1" stop-color="rgb(89.884949%, 69.685364%, 24.642944%)" offset="0.839844"/><stop stop-opacity="1" stop-color="rgb(90.466309%, 70.466614%, 25.033569%)" offset="0.84375"/><stop stop-opacity="1" stop-color="rgb(91.090393%, 71.365356%, 25.58136%)" offset="0.847656"/><stop stop-opacity="1" stop-color="rgb(91.714478%, 72.264099%, 26.12915%)" offset="0.851562"/><stop stop-opacity="1" stop-color="rgb(92.501831%, 73.176575%, 26.611328%)" offset="0.855469"/><stop stop-opacity="1" stop-color="rgb(93.29071%, 74.090576%, 27.095032%)" offset="0.859375"/><stop stop-opacity="1" stop-color="rgb(94.070435%, 75.059509%, 27.438354%)" offset="0.863281"/><stop stop-opacity="1" stop-color="rgb(94.851685%, 76.028442%, 27.781677%)" offset="0.867187"/><stop stop-opacity="1" stop-color="rgb(95.632935%, 76.776123%, 28.16925%)" offset="0.871094"/><stop stop-opacity="1" stop-color="rgb(96.414185%, 77.523804%, 28.556824%)" offset="0.875"/><stop stop-opacity="1" stop-color="rgb(95.349121%, 76.303101%, 28.050232%)" offset="0.878906"/><stop stop-opacity="1" stop-color="rgb(94.284058%, 75.083923%, 27.545166%)" offset="0.882812"/><stop stop-opacity="1" stop-color="rgb(92.793274%, 73.074341%, 27.003479%)" offset="0.886719"/><stop stop-opacity="1" stop-color="rgb(91.30249%, 71.064758%, 26.461792%)" offset="0.890625"/><stop stop-opacity="1" stop-color="rgb(89.201355%, 68.681335%, 25.979614%)" offset="0.894531"/><stop stop-opacity="1" stop-color="rgb(87.10022%, 66.299438%, 25.498962%)" offset="0.898438"/><stop stop-opacity="1" stop-color="rgb(85.728455%, 64.395142%, 24.908447%)" offset="0.902344"/><stop stop-opacity="1" stop-color="rgb(84.356689%, 62.490845%, 24.317932%)" offset="0.90625"/><stop stop-opacity="1" stop-color="rgb(82.849121%, 60.740662%, 23.545837%)" offset="0.910156"/><stop stop-opacity="1" stop-color="rgb(81.343079%, 58.990479%, 22.775269%)" offset="0.914062"/><stop stop-opacity="1" stop-color="rgb(79.785156%, 57.287598%, 22.415161%)" offset="0.917969"/><stop stop-opacity="1" stop-color="rgb(78.22876%, 55.586243%, 22.05658%)" offset="0.921875"/><stop stop-opacity="1" stop-color="rgb(76.916504%, 53.83606%, 21.504211%)" offset="0.925781"/><stop stop-opacity="1" stop-color="rgb(75.605774%, 52.085876%, 20.951843%)" offset="0.929688"/><stop stop-opacity="1" stop-color="rgb(74.243164%, 50.534058%, 20.370483%)" offset="0.933594"/><stop stop-opacity="1" stop-color="rgb(72.88208%, 48.982239%, 19.790649%)" offset="0.9375"/><stop stop-opacity="1" stop-color="rgb(71.369934%, 47.462463%, 18.908691%)" offset="0.941406"/><stop stop-opacity="1" stop-color="rgb(69.859314%, 45.944214%, 18.028259%)" offset="0.945312"/><stop stop-opacity="1" stop-color="rgb(69.062805%, 44.389343%, 17.297363%)" offset="0.949219"/><stop stop-opacity="1" stop-color="rgb(68.267822%, 42.835999%, 16.567993%)" offset="0.953125"/><stop stop-opacity="1" stop-color="rgb(66.963196%, 41.523743%, 16.360474%)" offset="0.957031"/><stop stop-opacity="1" stop-color="rgb(65.658569%, 40.211487%, 16.152954%)" offset="0.960938"/><stop stop-opacity="1" stop-color="rgb(64.486694%, 39.013672%, 15.762329%)" offset="0.964844"/><stop stop-opacity="1" stop-color="rgb(63.316345%, 37.815857%, 15.371704%)" offset="0.96875"/><stop stop-opacity="1" stop-color="rgb(62.348938%, 36.694336%, 15.489197%)" offset="0.972656"/><stop stop-opacity="1" stop-color="rgb(61.381531%, 35.572815%, 15.608215%)" offset="0.976562"/><stop stop-opacity="1" stop-color="rgb(59.910583%, 34.251404%, 15.653992%)" offset="0.980469"/><stop stop-opacity="1" stop-color="rgb(58.441162%, 32.931519%, 15.699768%)" offset="0.984375"/><stop stop-opacity="1" stop-color="rgb(57.695007%, 32.009888%, 15.699768%)" offset="0.988281"/><stop stop-opacity="1" stop-color="rgb(56.950378%, 31.088257%, 15.699768%)" offset="0.992188"/><stop stop-opacity="1" stop-color="rgb(56.549072%, 30.491638%, 15.699768%)" offset="0.996094"/><stop stop-opacity="1" stop-color="rgb(56.147766%, 29.896545%, 15.699768%)" offset="1"/></linearGradient><clipPath id="eda8ce41c4"><path d="M 0 288 L 1024 288 L 1024 451.839844 L 0 451.839844 Z M 0 288 " clip-rule="nonzero"/></clipPath><clipPath id="045688c768"><path d="M 0 124 L 1024 124 L 1024 289 L 0 289 Z M 0 124 " clip-rule="nonzero"/></clipPath><clipPath id="e33e5104e2"><path d="M 24.703125 150.683594 L 999.796875 150.683594 L 999.796875 425.53125 L 24.703125 425.53125 Z M 24.703125 150.683594 " clip-rule="nonzero"/></clipPath><clipPath id="7734438d36"><path d="M 999.796875 288.121094 C 999.796875 243.769531 978.550781 206.78125 950.226562 197.941406 L 950.226562 195.703125 C 950.226562 190.363281 948.175781 185.023438 944.105469 180.949219 C 940.054688 176.851562 934.695312 174.824219 929.359375 174.824219 L 923.570312 174.824219 C 921.570312 170.535156 918.949219 166.4375 915.398438 162.910156 C 907.253906 154.757812 896.582031 150.683594 885.882812 150.683594 L 138.617188 150.683594 C 127.917969 150.683594 117.246094 154.757812 109.101562 162.910156 C 105.550781 166.4375 102.929688 170.535156 100.929688 174.824219 L 95.140625 174.824219 C 89.804688 174.824219 84.46875 176.851562 80.394531 180.949219 C 76.324219 185.023438 74.273438 190.363281 74.273438 195.703125 L 74.273438 197.941406 C 45.976562 206.78125 24.703125 243.769531 24.703125 288.121094 C 24.703125 332.445312 45.976562 369.433594 74.273438 378.273438 L 74.273438 380.539062 C 74.273438 385.875 76.324219 391.214844 80.394531 395.289062 C 84.46875 399.363281 89.804688 401.390625 95.140625 401.390625 L 100.929688 401.390625 C 102.929688 405.679688 105.550781 409.777344 109.101562 413.328125 C 117.246094 421.480469 127.917969 425.53125 138.617188 425.53125 L 885.882812 425.53125 C 896.582031 425.53125 907.253906 421.480469 915.398438 413.328125 C 918.949219 409.777344 921.570312 405.679688 923.570312 401.390625 L 929.359375 401.390625 C 934.695312 401.390625 940.054688 399.363281 944.105469 395.289062 C 948.175781 391.214844 950.226562 385.875 950.226562 380.539062 L 950.226562 378.273438 C 978.550781 369.457031 999.796875 332.445312 999.796875 288.121094 Z M 999.796875 288.121094 " clip-rule="nonzero"/></clipPath><clipPath id="cc48fae91b"><path d="M 999.796875 288.121094 C 999.796875 243.769531 978.550781 206.78125 950.226562 197.941406 L 950.226562 195.703125 C 950.226562 190.363281 948.175781 185.023438 944.105469 180.949219 C 940.054688 176.851562 934.695312 174.824219 929.359375 174.824219 L 923.570312 174.824219 C 921.570312 170.535156 918.949219 166.4375 915.398438 162.910156 C 907.253906 154.757812 896.582031 150.683594 885.882812 150.683594 L 138.617188 150.683594 C 127.917969 150.683594 117.246094 154.757812 109.101562 162.910156 C 105.550781 166.4375 102.929688 170.535156 100.929688 174.824219 L 95.140625 174.824219 C 89.804688 174.824219 84.46875 176.851562 80.394531 180.949219 C 76.324219 185.023438 74.273438 190.363281 74.273438 195.703125 L 74.273438 197.941406 C 45.976562 206.78125 24.703125 243.769531 24.703125 288.121094 C 24.703125 332.445312 45.976562 369.433594 74.273438 378.273438 L 74.273438 380.539062 C 74.273438 385.875 76.324219 391.214844 80.394531 395.289062 C 84.46875 399.363281 89.804688 401.390625 95.140625 401.390625 L 100.929688 401.390625 C 102.929688 405.679688 105.550781 409.777344 109.101562 413.328125 C 117.246094 421.480469 127.917969 425.53125 138.617188 425.53125 L 885.882812 425.53125 C 896.582031 425.53125 907.253906 421.480469 915.398438 413.328125 C 918.949219 409.777344 921.570312 405.679688 923.570312 401.390625 L 929.359375 401.390625 C 934.695312 401.390625 940.054688 399.363281 944.105469 395.289062 C 948.175781 391.214844 950.226562 385.875 950.226562 380.539062 L 950.226562 378.273438 C 978.550781 369.457031 999.796875 332.445312 999.796875 288.121094 " clip-rule="nonzero"/></clipPath><linearGradient x1="-0.0000138798" gradientTransform="matrix(975.073992, 0, 0, 975.490659, 24.716063, 288.107568)" y1="0" x2="1.000008" gradientUnits="userSpaceOnUse" y2="0" id="8a6c948fbf"><stop stop-opacity="1" stop-color="rgb(83.499146%, 83.898926%, 77.598572%)" offset="0"/><stop stop-opacity="1" stop-color="rgb(83.499146%, 83.898926%, 77.598572%)" offset="0.0078125"/><stop stop-opacity="1" stop-color="rgb(83.499146%, 84.078979%, 77.978516%)" offset="0.0117187"/><stop stop-opacity="1" stop-color="rgb(83.499146%, 84.260559%, 78.359985%)" offset="0.015625"/><stop stop-opacity="1" stop-color="rgb(83.898926%, 84.300232%, 78.579712%)" offset="0.0195312"/><stop stop-opacity="1" stop-color="rgb(84.298706%, 84.341431%, 78.799438%)" offset="0.0234375"/><stop stop-opacity="1" stop-color="rgb(84.498596%, 84.532166%, 79.011536%)" offset="0.0273437"/><stop stop-opacity="1" stop-color="rgb(84.698486%, 84.7229%, 79.223633%)" offset="0.03125"/><stop stop-opacity="1" stop-color="rgb(84.901428%, 84.910583%, 79.611206%)" offset="0.0351562"/><stop stop-opacity="1" stop-color="rgb(85.10437%, 85.099792%, 79.998779%)" offset="0.0390625"/><stop stop-opacity="1" stop-color="rgb(85.301208%, 85.292053%, 80.19104%)" offset="0.0429687"/><stop stop-opacity="1" stop-color="rgb(85.499573%, 85.48584%, 80.384827%)" offset="0.046875"/><stop stop-opacity="1" stop-color="rgb(85.882568%, 85.691833%, 80.775452%)" offset="0.0507812"/><stop stop-opacity="1" stop-color="rgb(86.26709%, 85.899353%, 81.166077%)" offset="0.0546875"/><stop stop-opacity="1" stop-color="rgb(86.457825%, 86.273193%, 81.556702%)" offset="0.0585937"/><stop stop-opacity="1" stop-color="rgb(86.64856%, 86.64856%, 81.947327%)" offset="0.0625"/><stop stop-opacity="1" stop-color="rgb(86.888123%, 86.888123%, 82.199097%)" offset="0.0664062"/><stop stop-opacity="1" stop-color="rgb(87.129211%, 87.129211%, 82.452393%)" offset="0.0703125"/><stop stop-opacity="1" stop-color="rgb(87.469482%, 87.469482%, 82.980347%)" offset="0.0742188"/><stop stop-opacity="1" stop-color="rgb(87.809753%, 87.809753%, 83.509827%)" offset="0.078125"/><stop stop-opacity="1" stop-color="rgb(88.00354%, 88.200378%, 83.900452%)" offset="0.0820312"/><stop stop-opacity="1" stop-color="rgb(88.198853%, 88.592529%, 84.291077%)" offset="0.0859375"/><stop stop-opacity="1" stop-color="rgb(88.5849%, 88.781738%, 84.494019%)" offset="0.0898437"/><stop stop-opacity="1" stop-color="rgb(88.972473%, 88.972473%, 84.698486%)" offset="0.09375"/><stop stop-opacity="1" stop-color="rgb(89.363098%, 89.363098%, 85.275269%)" offset="0.0976562"/><stop stop-opacity="1" stop-color="rgb(89.753723%, 89.753723%, 85.853577%)" offset="0.101562"/><stop stop-opacity="1" stop-color="rgb(90.194702%, 90.194702%, 86.312866%)" offset="0.105469"/><stop stop-opacity="1" stop-color="rgb(90.635681%, 90.635681%, 86.772156%)" offset="0.109375"/><stop stop-opacity="1" stop-color="rgb(91.026306%, 91.026306%, 87.493896%)" offset="0.113281"/><stop stop-opacity="1" stop-color="rgb(91.416931%, 91.416931%, 88.217163%)" offset="0.117187"/><stop stop-opacity="1" stop-color="rgb(91.807556%, 91.607666%, 88.806152%)" offset="0.121094"/><stop stop-opacity="1" stop-color="rgb(92.198181%, 91.799927%, 89.396667%)" offset="0.125"/><stop stop-opacity="1" stop-color="rgb(92.538452%, 92.141724%, 89.978027%)" offset="0.128906"/><stop stop-opacity="1" stop-color="rgb(92.878723%, 92.485046%, 90.559387%)" offset="0.132812"/><stop stop-opacity="1" stop-color="rgb(93.469238%, 93.252563%, 91.159058%)" offset="0.136719"/><stop stop-opacity="1" stop-color="rgb(94.061279%, 94.021606%, 91.760254%)" offset="0.140625"/><stop stop-opacity="1" stop-color="rgb(94.700623%, 94.502258%, 92.550659%)" offset="0.144531"/><stop stop-opacity="1" stop-color="rgb(95.341492%, 94.984436%, 93.34259%)" offset="0.148438"/><stop stop-opacity="1" stop-color="rgb(95.932007%, 95.565796%, 93.943787%)" offset="0.152344"/><stop stop-opacity="1" stop-color="rgb(96.522522%, 96.147156%, 94.546509%)" offset="0.15625"/><stop stop-opacity="1" stop-color="rgb(97.062683%, 96.72699%, 95.327759%)" offset="0.160156"/><stop stop-opacity="1" stop-color="rgb(97.60437%, 97.30835%, 96.109009%)" offset="0.164062"/><stop stop-opacity="1" stop-color="rgb(98.187256%, 98.039246%, 97.035217%)" offset="0.167969"/><stop stop-opacity="1" stop-color="rgb(98.771667%, 98.771667%, 97.961426%)" offset="0.171875"/><stop stop-opacity="1" stop-color="rgb(99.168396%, 99.353027%, 98.747253%)" offset="0.175781"/><stop stop-opacity="1" stop-color="rgb(99.56665%, 99.934387%, 99.534607%)" offset="0.179687"/><stop stop-opacity="1" stop-color="rgb(99.769592%, 99.966431%, 99.754333%)" offset="0.183594"/><stop stop-opacity="1" stop-color="rgb(99.97406%, 100%, 99.97406%)" offset="0.1875"/><stop stop-opacity="1" stop-color="rgb(99.986267%, 100%, 99.986267%)" offset="0.25"/><stop stop-opacity="1" stop-color="rgb(100%, 100%, 100%)" offset="0.28125"/><stop stop-opacity="1" stop-color="rgb(100%, 100%, 100%)" offset="0.296875"/><stop stop-opacity="1" stop-color="rgb(100%, 100%, 100%)" offset="0.304688"/><stop stop-opacity="1" stop-color="rgb(99.798584%, 99.624634%, 99.450684%)" offset="0.308594"/><stop stop-opacity="1" stop-color="rgb(99.598694%, 99.249268%, 98.901367%)" offset="0.3125"/><stop stop-opacity="1" stop-color="rgb(98.783875%, 98.608398%, 98.223877%)" offset="0.316406"/><stop stop-opacity="1" stop-color="rgb(97.969055%, 97.969055%, 97.546387%)" offset="0.320312"/><stop stop-opacity="1" stop-color="rgb(97.622681%, 97.427368%, 96.617126%)" offset="0.324219"/><stop stop-opacity="1" stop-color="rgb(97.276306%, 96.887207%, 95.687866%)" offset="0.328125"/><stop stop-opacity="1" stop-color="rgb(96.690369%, 96.299744%, 95.100403%)" offset="0.332031"/><stop stop-opacity="1" stop-color="rgb(96.105957%, 95.713806%, 94.512939%)" offset="0.335937"/><stop stop-opacity="1" stop-color="rgb(95.715332%, 95.118713%, 93.917847%)" offset="0.339844"/><stop stop-opacity="1" stop-color="rgb(95.324707%, 94.525146%, 93.32428%)" offset="0.34375"/><stop stop-opacity="1" stop-color="rgb(94.555664%, 94.134521%, 92.599487%)" offset="0.347656"/><stop stop-opacity="1" stop-color="rgb(93.788147%, 93.743896%, 91.876221%)" offset="0.351562"/><stop stop-opacity="1" stop-color="rgb(93.32428%, 92.953491%, 91.218567%)" offset="0.355469"/><stop stop-opacity="1" stop-color="rgb(92.861938%, 92.163086%, 90.562439%)" offset="0.359375"/><stop stop-opacity="1" stop-color="rgb(92.521667%, 91.963196%, 89.971924%)" offset="0.363281"/><stop stop-opacity="1" stop-color="rgb(92.181396%, 91.763306%, 89.381409%)" offset="0.367187"/><stop stop-opacity="1" stop-color="rgb(91.790771%, 91.18042%, 88.790894%)" offset="0.371094"/><stop stop-opacity="1" stop-color="rgb(91.400146%, 90.59906%, 88.200378%)" offset="0.375"/><stop stop-opacity="1" stop-color="rgb(90.809631%, 90.208435%, 87.666321%)" offset="0.378906"/><stop stop-opacity="1" stop-color="rgb(90.219116%, 89.81781%, 87.133789%)" offset="0.382813"/><stop stop-opacity="1" stop-color="rgb(89.828491%, 89.427185%, 86.735535%)" offset="0.386719"/><stop stop-opacity="1" stop-color="rgb(89.437866%, 89.03656%, 86.33728%)" offset="0.390625"/><stop stop-opacity="1" stop-color="rgb(89.01825%, 88.595581%, 85.696411%)" offset="0.394531"/><stop stop-opacity="1" stop-color="rgb(88.598633%, 88.156128%, 85.055542%)" offset="0.398438"/><stop stop-opacity="1" stop-color="rgb(88.386536%, 87.956238%, 84.465027%)" offset="0.402344"/><stop stop-opacity="1" stop-color="rgb(88.174438%, 87.756348%, 83.874512%)" offset="0.40625"/><stop stop-opacity="1" stop-color="rgb(87.834167%, 87.226868%, 83.483887%)" offset="0.410156"/><stop stop-opacity="1" stop-color="rgb(87.493896%, 86.698914%, 83.093262%)" offset="0.414063"/><stop stop-opacity="1" stop-color="rgb(87.103271%, 86.505127%, 82.751465%)" offset="0.417969"/><stop stop-opacity="1" stop-color="rgb(86.712646%, 86.312866%, 82.409668%)" offset="0.421875"/><stop stop-opacity="1" stop-color="rgb(86.505127%, 85.922241%, 82.020569%)" offset="0.425781"/><stop stop-opacity="1" stop-color="rgb(86.299133%, 85.531616%, 81.63147%)" offset="0.429688"/><stop stop-opacity="1" stop-color="rgb(85.923767%, 85.140991%, 81.240845%)" offset="0.433594"/><stop stop-opacity="1" stop-color="rgb(85.549927%, 84.750366%, 80.85022%)" offset="0.4375"/><stop stop-opacity="1" stop-color="rgb(85.324097%, 84.724426%, 80.609131%)" offset="0.441406"/><stop stop-opacity="1" stop-color="rgb(85.099792%, 84.698486%, 80.368042%)" offset="0.445312"/><stop stop-opacity="1" stop-color="rgb(85.099792%, 84.698486%, 80.189514%)" offset="0.453125"/><stop stop-opacity="1" stop-color="rgb(85.295105%, 84.698486%, 80.204773%)" offset="0.457031"/><stop stop-opacity="1" stop-color="rgb(85.491943%, 84.698486%, 80.39856%)" offset="0.460938"/><stop stop-opacity="1" stop-color="rgb(85.494995%, 84.892273%, 80.39856%)" offset="0.46875"/><stop stop-opacity="1" stop-color="rgb(85.676575%, 85.092163%, 80.39856%)" offset="0.476562"/><stop stop-opacity="1" stop-color="rgb(86.076355%, 85.299683%, 80.59845%)" offset="0.480469"/><stop stop-opacity="1" stop-color="rgb(86.299133%, 85.499573%, 80.799866%)" offset="0.484375"/><stop stop-opacity="1" stop-color="rgb(86.299133%, 85.699463%, 80.999756%)" offset="0.488281"/><stop stop-opacity="1" stop-color="rgb(86.299133%, 85.899353%, 81.199646%)" offset="0.492188"/><stop stop-opacity="1" stop-color="rgb(86.499023%, 86.099243%, 81.199646%)" offset="0.496094"/><stop stop-opacity="1" stop-color="rgb(86.698914%, 86.299133%, 81.199646%)" offset="0.5"/><stop stop-opacity="1" stop-color="rgb(86.698914%, 86.489868%, 81.199646%)" offset="0.507812"/><stop stop-opacity="1" stop-color="rgb(86.898804%, 86.689758%, 81.399536%)" offset="0.511719"/><stop stop-opacity="1" stop-color="rgb(87.098694%, 86.698914%, 81.599426%)" offset="0.515625"/><stop stop-opacity="1" stop-color="rgb(87.120056%, 86.898804%, 81.799316%)" offset="0.519531"/><stop stop-opacity="1" stop-color="rgb(87.142944%, 87.098694%, 81.999207%)" offset="0.523438"/><stop stop-opacity="1" stop-color="rgb(87.321472%, 87.110901%, 81.999207%)" offset="0.53125"/><stop stop-opacity="1" stop-color="rgb(87.646484%, 87.312317%, 81.999207%)" offset="0.546875"/><stop stop-opacity="1" stop-color="rgb(87.995911%, 87.834167%, 82.199097%)" offset="0.550781"/><stop stop-opacity="1" stop-color="rgb(88.198853%, 88.168335%, 82.398987%)" offset="0.554688"/><stop stop-opacity="1" stop-color="rgb(88.198853%, 88.183594%, 82.398987%)" offset="0.5625"/><stop stop-opacity="1" stop-color="rgb(88.398743%, 88.398743%, 82.548523%)" offset="0.566406"/><stop stop-opacity="1" stop-color="rgb(88.598633%, 88.598633%, 82.699585%)" offset="0.570312"/><stop stop-opacity="1" stop-color="rgb(88.604736%, 88.604736%, 82.699585%)" offset="0.578125"/><stop stop-opacity="1" stop-color="rgb(88.804626%, 88.804626%, 82.885742%)" offset="0.59375"/><stop stop-opacity="1" stop-color="rgb(89.376831%, 89.199829%, 83.46405%)" offset="0.597656"/><stop stop-opacity="1" stop-color="rgb(89.755249%, 89.399719%, 83.854675%)" offset="0.601562"/><stop stop-opacity="1" stop-color="rgb(90.176392%, 89.81781%, 84.295654%)" offset="0.605469"/><stop stop-opacity="1" stop-color="rgb(90.59906%, 90.235901%, 84.736633%)" offset="0.609375"/><stop stop-opacity="1" stop-color="rgb(90.79895%, 90.426636%, 85.127258%)" offset="0.613281"/><stop stop-opacity="1" stop-color="rgb(90.99884%, 90.617371%, 85.517883%)" offset="0.617188"/><stop stop-opacity="1" stop-color="rgb(91.19873%, 91.007996%, 85.908508%)" offset="0.621094"/><stop stop-opacity="1" stop-color="rgb(91.398621%, 91.398621%, 86.299133%)" offset="0.625"/><stop stop-opacity="1" stop-color="rgb(91.789246%, 91.589355%, 86.689758%)" offset="0.628906"/><stop stop-opacity="1" stop-color="rgb(92.179871%, 91.78009%, 87.080383%)" offset="0.632812"/><stop stop-opacity="1" stop-color="rgb(92.324829%, 91.989136%, 87.620544%)" offset="0.636719"/><stop stop-opacity="1" stop-color="rgb(92.471313%, 92.199707%, 88.162231%)" offset="0.640625"/><stop stop-opacity="1" stop-color="rgb(92.706299%, 92.570496%, 88.601685%)" offset="0.644531"/><stop stop-opacity="1" stop-color="rgb(92.94281%, 92.94281%, 89.042664%)" offset="0.648437"/><stop stop-opacity="1" stop-color="rgb(93.333435%, 93.133545%, 89.633179%)" offset="0.652344"/><stop stop-opacity="1" stop-color="rgb(93.72406%, 93.32428%, 90.223694%)" offset="0.65625"/><stop stop-opacity="1" stop-color="rgb(94.114685%, 93.714905%, 90.614319%)" offset="0.660156"/><stop stop-opacity="1" stop-color="rgb(94.50531%, 94.10553%, 91.004944%)" offset="0.664062"/><stop stop-opacity="1" stop-color="rgb(94.702148%, 94.496155%, 91.395569%)" offset="0.667969"/><stop stop-opacity="1" stop-color="rgb(94.898987%, 94.88678%, 91.786194%)" offset="0.671875"/><stop stop-opacity="1" stop-color="rgb(95.098877%, 95.077515%, 92.315674%)" offset="0.675781"/><stop stop-opacity="1" stop-color="rgb(95.298767%, 95.26825%, 92.845154%)" offset="0.679687"/><stop stop-opacity="1" stop-color="rgb(95.674133%, 95.483398%, 93.24646%)" offset="0.683594"/><stop stop-opacity="1" stop-color="rgb(96.0495%, 95.698547%, 93.649292%)" offset="0.6875"/><stop stop-opacity="1" stop-color="rgb(96.289062%, 96.113586%, 94.090271%)" offset="0.691406"/><stop stop-opacity="1" stop-color="rgb(96.530151%, 96.530151%, 94.53125%)" offset="0.695312"/><stop stop-opacity="1" stop-color="rgb(96.91925%, 96.914673%, 95.114136%)" offset="0.699219"/><stop stop-opacity="1" stop-color="rgb(97.30835%, 97.299194%, 95.698547%)" offset="0.703125"/><stop stop-opacity="1" stop-color="rgb(97.650146%, 97.447205%, 95.895386%)" offset="0.707031"/><stop stop-opacity="1" stop-color="rgb(97.993469%, 97.595215%, 96.09375%)" offset="0.710937"/><stop stop-opacity="1" stop-color="rgb(98.184204%, 97.796631%, 96.684265%)" offset="0.714844"/><stop stop-opacity="1" stop-color="rgb(98.374939%, 97.999573%, 97.27478%)" offset="0.71875"/><stop stop-opacity="1" stop-color="rgb(98.565674%, 98.377991%, 97.615051%)" offset="0.722656"/><stop stop-opacity="1" stop-color="rgb(98.756409%, 98.756409%, 97.955322%)" offset="0.726562"/><stop stop-opacity="1" stop-color="rgb(98.995972%, 98.995972%, 98.396301%)" offset="0.730469"/><stop stop-opacity="1" stop-color="rgb(99.237061%, 99.237061%, 98.83728%)" offset="0.734375"/><stop stop-opacity="1" stop-color="rgb(99.61853%, 99.61853%, 99.223328%)" offset="0.738281"/><stop stop-opacity="1" stop-color="rgb(100%, 100%, 99.609375%)" offset="0.742187"/><stop stop-opacity="1" stop-color="rgb(100%, 100%, 99.804688%)" offset="0.75"/><stop stop-opacity="1" stop-color="rgb(99.998474%, 99.998474%, 99.998474%)" offset="0.875"/><stop stop-opacity="1" stop-color="rgb(99.798584%, 99.607849%, 99.407959%)" offset="0.878906"/><stop stop-opacity="1" stop-color="rgb(99.598694%, 99.217224%, 98.817444%)" offset="0.882812"/><stop stop-opacity="1" stop-color="rgb(99.017334%, 98.826599%, 98.426819%)" offset="0.886719"/><stop stop-opacity="1" stop-color="rgb(98.435974%, 98.435974%, 98.036194%)" offset="0.890625"/><stop stop-opacity="1" stop-color="rgb(98.194885%, 98.001099%, 97.422791%)" offset="0.894531"/><stop stop-opacity="1" stop-color="rgb(97.955322%, 97.566223%, 96.810913%)" offset="0.898438"/><stop stop-opacity="1" stop-color="rgb(97.601318%, 97.219849%, 96.229553%)" offset="0.902344"/><stop stop-opacity="1" stop-color="rgb(97.24884%, 96.873474%, 95.648193%)" offset="0.90625"/><stop stop-opacity="1" stop-color="rgb(96.670532%, 96.482849%, 95.069885%)" offset="0.910156"/><stop stop-opacity="1" stop-color="rgb(96.092224%, 96.092224%, 94.493103%)" offset="0.914062"/><stop stop-opacity="1" stop-color="rgb(95.701599%, 95.701599%, 93.907166%)" offset="0.917969"/><stop stop-opacity="1" stop-color="rgb(95.310974%, 95.310974%, 93.322754%)" offset="0.921875"/><stop stop-opacity="1" stop-color="rgb(94.920349%, 94.735718%, 92.771912%)" offset="0.925781"/><stop stop-opacity="1" stop-color="rgb(94.529724%, 94.160461%, 92.222595%)" offset="0.929688"/><stop stop-opacity="1" stop-color="rgb(93.763733%, 93.579102%, 91.259766%)" offset="0.933594"/><stop stop-opacity="1" stop-color="rgb(92.997742%, 92.997742%, 90.298462%)" offset="0.9375"/><stop stop-opacity="1" stop-color="rgb(92.582703%, 92.582703%, 89.616394%)" offset="0.941406"/><stop stop-opacity="1" stop-color="rgb(92.167664%, 92.167664%, 88.935852%)" offset="0.945312"/><stop stop-opacity="1" stop-color="rgb(91.777039%, 91.777039%, 88.21106%)" offset="0.949219"/><stop stop-opacity="1" stop-color="rgb(91.386414%, 91.386414%, 87.486267%)" offset="0.953125"/><stop stop-opacity="1" stop-color="rgb(90.995789%, 90.797424%, 86.897278%)" offset="0.957031"/><stop stop-opacity="1" stop-color="rgb(90.605164%, 90.209961%, 86.309814%)" offset="0.960938"/><stop stop-opacity="1" stop-color="rgb(90.026855%, 90.003967%, 85.728455%)" offset="0.964844"/><stop stop-opacity="1" stop-color="rgb(89.448547%, 89.7995%, 85.148621%)" offset="0.96875"/><stop stop-opacity="1" stop-color="rgb(89.045715%, 89.221191%, 84.567261%)" offset="0.972656"/><stop stop-opacity="1" stop-color="rgb(88.642883%, 88.642883%, 83.985901%)" offset="0.976562"/><stop stop-opacity="1" stop-color="rgb(88.050842%, 88.050842%, 83.172607%)" offset="0.980469"/><stop stop-opacity="1" stop-color="rgb(87.460327%, 87.460327%, 82.36084%)" offset="0.984375"/><stop stop-opacity="1" stop-color="rgb(87.069702%, 87.069702%, 81.759644%)" offset="0.988281"/><stop stop-opacity="1" stop-color="rgb(86.679077%, 86.679077%, 81.159973%)" offset="0.992188"/><stop stop-opacity="1" stop-color="rgb(86.088562%, 86.088562%, 80.378723%)" offset="0.996094"/><stop stop-opacity="1" stop-color="rgb(85.499573%, 85.499573%, 79.598999%)" offset="1"/></linearGradient></defs><g clip-path="url(#bac708f3a6)"><path fill="#ffffff" d="M 0 0.140625 L 1024.5 0.140625 L 1024.5 576.140625 L 0 576.140625 Z M 0 0.140625 " fill-opacity="1" fill-rule="nonzero"/><path fill="#ffffff" d="M 0 0.140625 L 1024.5 0.140625 L 1024.5 576.140625 L 0 576.140625 Z M 0 0.140625 " fill-opacity="1" fill-rule="nonzero"/></g><g clip-path="url(#f877d43890)"><g clip-path="url(#801b5223bc)"><path fill="url(#580a6d7f65)" d="M 0 125.972656 L 0 450.269531 L 1024 450.269531 L 1024 125.972656 Z M 0 125.972656 " fill-rule="nonzero"/></g></g><g clip-path="url(#eda8ce41c4)"><path fill="#804e2c" d="M 1024.5 288.121094 C 1024.644531 308.828125 1020.949219 329.730469 1012.660156 348.867188 C 1004.417969 367.882812 991.292969 385.445312 973.164062 396.410156 L 973.738281 395.695312 C 971.140625 403.558594 966.375 410.707031 960.160156 416.1875 C 953.917969 421.671875 946.152344 425.386719 937.980469 426.890625 L 938.910156 426.316406 C 927.429688 440.878906 909.777344 450.242188 891.316406 451.578125 C 873.046875 452.03125 855.15625 451.699219 837.074219 451.816406 L 187.425781 451.816406 C 169.34375 451.699219 151.453125 452.03125 133.183594 451.578125 C 114.722656 450.242188 97.070312 440.855469 85.589844 426.316406 L 86.519531 426.890625 C 78.347656 425.386719 70.582031 421.671875 64.339844 416.164062 C 58.125 410.683594 53.359375 403.535156 50.785156 395.695312 L 51.335938 396.386719 C 33.207031 385.421875 20.082031 367.882812 11.863281 348.839844 C 3.574219 329.703125 -0.117188 308.828125 0 288.121094 C 0.285156 308.828125 4.40625 329.5625 13.007812 348.339844 C 21.535156 367 34.851562 383.945312 52.621094 394.191406 L 53.027344 394.40625 L 53.191406 394.859375 C 58.339844 409.660156 71.773438 421.097656 87.089844 423.839844 L 87.660156 423.957031 L 88.019531 424.410156 C 98.953125 438.257812 115.820312 447.242188 133.421875 448.503906 C 151.214844 448.933594 169.441406 448.625 187.425781 448.71875 L 837.074219 448.71875 C 855.058594 448.625 873.285156 448.933594 891.078125 448.503906 C 908.679688 447.242188 925.546875 438.257812 936.480469 424.410156 L 936.839844 423.957031 L 937.410156 423.839844 C 952.726562 421.121094 966.113281 409.636719 971.285156 394.859375 L 971.449219 394.40625 L 971.855469 394.167969 C 989.625 383.945312 1002.941406 367 1011.492188 348.339844 C 1020.09375 329.5625 1024.191406 308.828125 1024.5 288.121094 " fill-opacity="1" fill-rule="nonzero"/></g><g clip-path="url(#045688c768)"><path fill="#fcd45a" d="M 0 288.121094 C -0.117188 267.410156 3.550781 246.511719 11.839844 227.375 C 20.082031 208.355469 33.207031 190.792969 51.335938 179.828125 L 50.761719 180.542969 C 53.359375 172.679688 58.101562 165.53125 64.316406 160.050781 C 70.582031 154.570312 78.347656 150.828125 86.519531 149.347656 L 85.589844 149.898438 C 97.070312 135.359375 114.722656 125.972656 133.183594 124.636719 C 151.453125 124.183594 169.320312 124.515625 187.425781 124.421875 L 837.074219 124.421875 C 855.179688 124.515625 873.046875 124.183594 891.316406 124.636719 C 909.777344 125.972656 927.429688 135.359375 938.910156 149.898438 L 937.980469 149.347656 C 946.152344 150.851562 953.941406 154.542969 960.160156 160.050781 C 966.375 165.53125 971.140625 172.679688 973.714844 180.542969 L 973.140625 179.855469 C 991.292969 190.816406 1004.417969 208.355469 1012.660156 227.375 C 1020.949219 246.511719 1024.617188 267.410156 1024.5 288.121094 C 1024.214844 267.410156 1020.09375 246.675781 1011.492188 227.898438 C 1002.964844 209.214844 989.648438 192.269531 971.878906 182.046875 L 971.472656 181.808594 L 971.308594 181.355469 C 966.160156 166.554688 952.726562 155.117188 937.410156 152.375 L 936.863281 152.28125 L 936.480469 151.804688 C 925.546875 137.957031 908.707031 128.996094 891.078125 127.734375 C 873.285156 127.28125 855.058594 127.617188 837.074219 127.496094 L 187.425781 127.496094 C 169.441406 127.617188 151.214844 127.28125 133.421875 127.734375 C 115.792969 128.996094 98.953125 137.957031 88.019531 151.804688 L 87.636719 152.28125 L 87.089844 152.375 C 71.75 155.117188 58.386719 166.601562 53.191406 181.355469 L 53.050781 181.832031 L 52.621094 182.070312 C 34.875 192.292969 21.558594 209.238281 13.03125 227.898438 C 4.429688 246.675781 0.308594 267.410156 0 288.121094 " fill-opacity="1" fill-rule="nonzero"/></g><g clip-path="url(#e33e5104e2)"><g clip-path="url(#7734438d36)"><g clip-path="url(#cc48fae91b)"><path fill="url(#8a6c948fbf)" d="M 24.703125 150.683594 L 24.703125 425.53125 L 999.796875 425.53125 L 999.796875 150.683594 Z M 24.703125 150.683594 " fill-rule="nonzero"/></g></g></g><path fill="#fbcc96" d="M 24.703125 288.121094 C 25.035156 306.328125 28.703125 324.582031 36.683594 340.90625 C 40.6875 349.03125 45.808594 356.632812 52.144531 363.019531 C 58.480469 369.382812 66.128906 374.484375 74.632812 377.128906 L 75.488281 377.414062 L 75.464844 378.273438 C 75.394531 381.753906 75.703125 384.804688 76.988281 387.804688 C 78.203125 390.761719 80.15625 393.382812 82.613281 395.382812 C 85.066406 397.410156 87.996094 398.816406 91.066406 399.433594 C 94.070312 400.101562 97.5 399.769531 100.929688 399.863281 L 101.929688 399.886719 L 102.335938 400.746094 C 105.8125 408.515625 111.792969 414.949219 119.25 419.023438 C 122.941406 421.074219 126.964844 422.480469 131.113281 423.289062 C 135.257812 424.148438 139.496094 423.980469 143.925781 424.003906 L 880.574219 424.003906 C 885.003906 423.980469 889.242188 424.148438 893.386719 423.289062 C 897.535156 422.480469 901.558594 421.074219 905.25 419.023438 C 912.707031 414.949219 918.6875 408.515625 922.164062 400.746094 L 922.570312 399.863281 L 923.570312 399.863281 C 927 399.769531 930.40625 400.078125 933.433594 399.460938 C 936.503906 398.839844 939.457031 397.433594 941.886719 395.40625 C 944.339844 393.382812 946.320312 390.761719 947.535156 387.804688 C 948.796875 384.804688 949.128906 381.730469 949.058594 378.273438 L 949.035156 377.414062 L 949.867188 377.152344 C 958.371094 374.507812 966.019531 369.382812 972.355469 363.019531 C 978.714844 356.632812 983.8125 349.03125 987.816406 340.90625 C 995.820312 324.582031 999.464844 306.328125 999.796875 288.121094 C 999.867188 306.328125 996.605469 324.75 988.886719 341.429688 C 985.027344 349.722656 980.003906 357.5625 973.640625 364.261719 C 967.28125 370.933594 959.46875 376.4375 950.582031 379.417969 L 951.417969 378.273438 C 951.582031 381.609375 951.296875 385.46875 949.941406 388.78125 C 948.628906 392.144531 946.460938 395.195312 943.722656 397.554688 C 940.984375 399.9375 937.625 401.628906 934.050781 402.414062 C 930.382812 403.273438 926.90625 402.84375 923.570312 402.9375 L 924.976562 402.058594 C 921.257812 410.328125 914.730469 417.40625 906.753906 421.71875 C 902.773438 423.933594 898.414062 425.460938 893.960938 426.316406 C 889.480469 427.246094 884.882812 427.078125 880.574219 427.078125 L 143.925781 427.078125 C 139.617188 427.078125 135.019531 427.246094 130.539062 426.316406 C 126.0625 425.460938 121.726562 423.933594 117.746094 421.71875 C 109.769531 417.40625 103.242188 410.328125 99.523438 402.058594 L 100.929688 402.9375 C 97.570312 402.84375 94.117188 403.25 90.449219 402.4375 C 86.875 401.652344 83.515625 399.960938 80.777344 397.578125 C 78.015625 395.195312 75.871094 392.167969 74.558594 388.78125 C 73.179688 385.46875 72.917969 381.609375 73.058594 378.273438 L 73.917969 379.417969 C 65.007812 376.4375 57.21875 370.933594 50.859375 364.261719 C 44.472656 357.585938 39.472656 349.722656 35.613281 341.429688 C 27.894531 324.75 24.65625 306.328125 24.703125 288.121094 " fill-opacity="1" fill-rule="nonzero"/><path fill="#a98f71" d="M 999.796875 288.121094 C 999.464844 269.914062 995.820312 251.632812 987.816406 235.332031 C 983.8125 227.207031 978.714844 219.605469 972.355469 213.21875 C 966.019531 206.855469 958.371094 201.730469 949.867188 199.085938 L 949.011719 198.824219 L 949.035156 197.941406 C 949.105469 194.484375 948.796875 191.4375 947.511719 188.410156 C 946.296875 185.476562 944.339844 182.855469 941.886719 180.832031 C 939.457031 178.804688 936.503906 177.398438 933.40625 176.804688 C 930.40625 176.113281 927 176.445312 923.570312 176.375 L 922.570312 176.351562 L 922.164062 175.46875 C 918.6875 167.699219 912.707031 161.265625 905.25 157.214844 C 901.558594 155.140625 897.535156 153.734375 893.386719 152.925781 C 889.242188 152.089844 885.003906 152.234375 880.574219 152.234375 L 143.925781 152.234375 C 139.496094 152.234375 135.257812 152.089844 131.113281 152.925781 C 126.964844 153.734375 122.941406 155.140625 119.25 157.214844 C 111.792969 161.265625 105.8125 167.699219 102.335938 175.46875 L 101.929688 176.351562 L 100.929688 176.375 C 97.5 176.445312 94.09375 176.136719 91.066406 176.78125 C 87.972656 177.398438 85.042969 178.78125 82.589844 180.808594 C 80.132812 182.832031 78.179688 185.453125 76.964844 188.410156 C 75.703125 191.410156 75.371094 194.484375 75.441406 197.941406 L 75.464844 198.824219 L 74.632812 199.085938 C 66.128906 201.730469 58.480469 206.832031 52.144531 213.21875 C 45.785156 219.582031 40.6875 227.207031 36.683594 235.332031 C 28.679688 251.632812 25.035156 269.914062 24.703125 288.121094 C 24.65625 269.914062 27.894531 251.492188 35.613281 234.808594 C 39.472656 226.515625 44.496094 218.652344 50.859375 211.976562 C 57.21875 205.304688 65.03125 199.800781 73.917969 196.820312 L 73.082031 197.941406 C 72.917969 194.628906 73.203125 190.769531 74.558594 187.457031 C 75.871094 184.070312 78.039062 181.046875 80.777344 178.660156 C 83.515625 176.304688 86.875 174.609375 90.449219 173.800781 C 94.117188 172.964844 97.570312 173.394531 100.929688 173.277344 L 99.523438 174.183594 C 103.21875 165.886719 109.769531 158.835938 117.746094 154.496094 C 121.726562 152.28125 126.0625 150.753906 130.539062 149.898438 C 135.019531 148.992188 139.617188 149.136719 143.925781 149.136719 L 880.574219 149.136719 C 884.882812 149.136719 889.480469 148.992188 893.960938 149.898438 C 898.4375 150.753906 902.773438 152.28125 906.753906 154.496094 C 914.730469 158.835938 921.257812 165.886719 924.976562 174.183594 L 923.570312 173.277344 C 926.929688 173.394531 930.382812 172.964844 934.074219 173.800781 C 937.625 174.585938 940.984375 176.277344 943.722656 178.660156 C 946.460938 181.019531 948.628906 184.070312 949.941406 187.433594 C 951.320312 190.769531 951.605469 194.628906 951.441406 197.941406 L 950.582031 196.796875 C 959.492188 199.777344 967.28125 205.28125 973.640625 211.953125 C 980.027344 218.652344 985.027344 226.492188 988.886719 234.808594 C 996.628906 251.492188 999.867188 269.914062 999.796875 288.121094 " fill-opacity="1" fill-rule="nonzero"/><path fill="#a9aba0" d="M 918.449219 367.8125 L 802.34375 367.8125 L 802.34375 364.714844 L 918.449219 364.714844 L 918.449219 367.8125 " fill-opacity="1" fill-rule="nonzero"/><path fill="#ffffff" d="M 918.449219 371.171875 L 802.34375 371.171875 L 802.34375 368.074219 L 918.449219 368.074219 L 918.449219 371.171875 " fill-opacity="1" fill-rule="nonzero"/><path fill="#a9aba0" d="M 219.320312 367.8125 L 103.191406 367.8125 L 103.191406 364.714844 L 219.320312 364.714844 L 219.320312 367.8125 " fill-opacity="1" fill-rule="nonzero"/><path fill="#ffffff" d="M 219.320312 371.171875 L 103.191406 371.171875 L 103.191406 368.074219 L 219.320312 368.074219 L 219.320312 371.171875 " fill-opacity="1" fill-rule="nonzero"/></svg>